<svg xmlns="http://www.w3.org/2000/svg" xmlns:xlink="http://www.w3.org/1999/xlink" width="1080" zoomAndPan="magnify" viewBox="0 0 810 809.999993" height="1080" preserveAspectRatio="xMidYMid meet" version="1.0"><defs><clipPath id="0389d0ed76"><path d="M 17 70.269531 L 68 70.269531 L 68 72 L 17 72 Z M 17 70.269531 " clip-rule="nonzero"/></clipPath><clipPath id="be0e67e255"><path d="M 20 70.269531 L 305 70.269531 L 305 119 L 20 119 Z M 20 70.269531 " clip-rule="nonzero"/></clipPath><clipPath id="c87a0583ff"><path d="M 43 16.539062 L 68 16.539062 L 68 31 L 43 31 Z M 43 16.539062 " clip-rule="nonzero"/></clipPath><clipPath id="faa911725a"><path d="M 90.167969 59.8125 L 93.300781 59.8125 L 93.300781 64.609375 L 90.167969 64.609375 Z M 90.167969 59.8125 " clip-rule="nonzero"/></clipPath><clipPath id="d0a4b19e1d"><path d="M 57 95 L 66 95 L 66 98.289062 L 57 98.289062 Z M 57 95 " clip-rule="nonzero"/></clipPath><clipPath id="4595666318"><path d="M 17.574219 59 L 21 59 L 21 65 L 17.574219 65 Z M 17.574219 59 " clip-rule="nonzero"/></clipPath><clipPath id="3e38cc5baa"><path d="M 45 95 L 54 95 L 54 98.289062 L 45 98.289062 Z M 45 95 " clip-rule="nonzero"/></clipPath></defs><g clip-path="url(#0389d0ed76)"><path fill="#000000" d="M 31.277344 42.253906 C 31.277344 31.625 49.660156 24.609375 49.660156 13.019531 C 49.660156 6.234375 43.710938 0.34375 42.820312 0 C 42.890625 0.476562 42.925781 0.964844 42.925781 1.441406 C 42.925781 14.703125 17.199219 23.601562 17.199219 40.121094 C 17.199219 47.292969 22.832031 51.527344 28.832031 55.71875 C 40.214844 62.441406 42.488281 66 42.488281 68.1875 C 42.488281 69.644531 41.648438 70.636719 41.648438 71.398438 C 43.941406 68.996094 44.691406 66.804688 44.710938 64.71875 C 44.710938 60.457031 40.914062 56.609375 36.980469 52.261719 C 34.183594 49.050781 31.277344 46.125 31.277344 42.253906 Z M 67.179688 36.636719 C 65.066406 27.015625 53.539062 18.722656 50.621094 17.785156 L 51.320312 18.820312 C 51.738281 19.554688 51.914062 20.390625 51.914062 21.285156 C 51.914062 27.722656 42.4375 37.296875 42.015625 38.089844 C 41.632812 38.824219 41.457031 39.601562 41.457031 40.367188 C 41.457031 43.261719 44.113281 46.429688 44.585938 46.429688 C 45.007812 46.429688 54.484375 38.449219 54.746094 33.800781 C 55.867188 35.484375 56.339844 37.054688 56.339844 38.609375 C 56.339844 44.542969 49.027344 52.5625 49.027344 52.5625 C 49.027344 54.234375 54.609375 60.226562 55.238281 60.226562 C 55.410156 60.226562 55.621094 60.023438 55.796875 59.878906 C 62.425781 54.21875 67.566406 47.636719 67.566406 40.179688 C 67.566406 39.027344 67.445312 37.847656 67.179688 36.636719 Z M 67.179688 36.636719 " fill-opacity="1" fill-rule="nonzero"/></g><g clip-path="url(#be0e67e255)"><path fill="#ffffff" d="M 105.273438 10.183594 L 105.273438 20.011719 L 87.519531 20.011719 L 87.519531 27.824219 L 100.613281 27.824219 L 100.613281 37.210938 L 87.519531 37.210938 L 87.519531 54.601562 L 75.179688 54.601562 L 75.179688 10.183594 Z M 131.75 55.042969 C 127.59375 55.042969 123.773438 54.074219 120.289062 52.144531 C 116.808594 50.167969 114.039062 47.460938 111.980469 44.015625 C 109.964844 40.53125 108.957031 36.601562 108.957031 32.234375 C 108.957031 27.867188 109.964844 23.960938 111.980469 20.515625 C 114.039062 17.03125 116.808594 14.320312 120.289062 12.390625 C 123.773438 10.457031 127.59375 9.492188 131.75 9.492188 C 135.945312 9.492188 139.765625 10.457031 143.207031 12.390625 C 146.691406 14.320312 149.4375 17.03125 151.453125 20.515625 C 153.46875 23.960938 154.476562 27.867188 154.476562 32.234375 C 154.476562 36.601562 153.46875 40.53125 151.453125 44.015625 C 149.4375 47.460938 146.691406 50.167969 143.207031 52.144531 C 139.722656 54.074219 135.902344 55.042969 131.75 55.042969 Z M 131.75 43.574219 C 134.898438 43.574219 137.371094 42.546875 139.175781 40.488281 C 141.023438 38.429688 141.949219 35.679688 141.949219 32.234375 C 141.949219 28.707031 141.023438 25.933594 139.175781 23.917969 C 137.371094 21.859375 134.898438 20.832031 131.75 20.832031 C 128.558594 20.832031 126.0625 21.859375 124.257812 23.917969 C 122.453125 25.933594 121.550781 28.707031 121.550781 32.234375 C 121.550781 35.722656 122.453125 38.492188 124.257812 40.550781 C 126.0625 42.566406 128.558594 43.574219 131.75 43.574219 Z M 181.300781 55.042969 C 177.148438 55.042969 173.328125 54.074219 169.84375 52.144531 C 166.359375 50.167969 163.589844 47.460938 161.535156 44.015625 C 159.519531 40.53125 158.511719 36.601562 158.511719 32.234375 C 158.511719 27.867188 159.519531 23.960938 161.535156 20.515625 C 163.589844 17.03125 166.359375 14.320312 169.84375 12.390625 C 173.328125 10.457031 177.148438 9.492188 181.300781 9.492188 C 185.5 9.492188 189.320312 10.457031 192.761719 12.390625 C 196.242188 14.320312 198.992188 17.03125 201.007812 20.515625 C 203.023438 23.960938 204.03125 27.867188 204.03125 32.234375 C 204.03125 36.601562 203.023438 40.53125 201.007812 44.015625 C 198.992188 47.460938 196.242188 50.167969 192.761719 52.144531 C 189.277344 54.074219 185.457031 55.042969 181.300781 55.042969 Z M 181.300781 43.574219 C 184.449219 43.574219 186.925781 42.546875 188.730469 40.488281 C 190.578125 38.429688 191.5 35.679688 191.5 32.234375 C 191.5 28.707031 190.578125 25.933594 188.730469 23.917969 C 186.925781 21.859375 184.449219 20.832031 181.300781 20.832031 C 178.113281 20.832031 175.617188 21.859375 173.808594 23.917969 C 172.003906 25.933594 171.101562 28.707031 171.101562 32.234375 C 171.101562 35.722656 172.003906 38.492188 173.808594 40.550781 C 175.617188 42.566406 178.113281 43.574219 181.300781 43.574219 Z M 227.140625 10.183594 C 231.800781 10.183594 235.871094 11.128906 239.355469 13.019531 C 242.878906 14.867188 245.585938 17.472656 247.476562 20.832031 C 249.363281 24.191406 250.308594 28.035156 250.308594 32.359375 C 250.308594 36.644531 249.34375 40.46875 247.414062 43.828125 C 245.523438 47.1875 242.816406 49.832031 239.292969 51.765625 C 235.808594 53.65625 231.757812 54.601562 227.140625 54.601562 L 209.578125 54.601562 L 209.578125 10.183594 Z M 226.195312 43.699219 C 229.804688 43.699219 232.640625 42.714844 234.695312 40.738281 C 236.753906 38.765625 237.78125 35.972656 237.78125 32.359375 C 237.78125 28.707031 236.753906 25.894531 234.695312 23.917969 C 232.640625 21.902344 229.804688 20.894531 226.195312 20.894531 L 221.914062 20.894531 L 221.914062 43.699219 Z M 37.71875 73.183594 C 42.378906 73.183594 46.449219 74.128906 49.933594 76.019531 C 53.457031 77.867188 56.164062 80.472656 58.054688 83.832031 C 59.941406 87.191406 60.886719 91.035156 60.886719 95.359375 C 60.886719 99.644531 59.921875 103.46875 57.992188 106.828125 C 56.101562 110.1875 53.394531 112.832031 49.871094 114.765625 C 46.386719 116.65625 42.335938 117.601562 37.71875 117.601562 L 20.15625 117.601562 L 20.15625 73.183594 Z M 36.773438 106.699219 C 40.382812 106.699219 43.21875 105.714844 45.273438 103.738281 C 47.332031 101.765625 48.359375 98.972656 48.359375 95.359375 C 48.359375 91.707031 47.332031 88.894531 45.273438 86.917969 C 43.21875 84.902344 40.382812 83.894531 36.773438 83.894531 L 32.496094 83.894531 L 32.496094 106.699219 Z M 78.789062 73.183594 L 78.789062 117.601562 L 66.449219 117.601562 L 66.449219 73.183594 Z M 129.003906 73.183594 L 113.707031 117.601562 L 97.902344 117.601562 L 82.542969 73.183594 L 95.761719 73.183594 L 105.835938 105.253906 L 115.847656 73.183594 Z M 131.335938 95.296875 C 131.335938 90.929688 132.242188 87.046875 134.046875 83.644531 C 135.890625 80.199219 138.492188 77.53125 141.851562 75.640625 C 145.210938 73.710938 149.070312 72.742188 153.433594 72.742188 C 158.976562 72.742188 163.632812 74.234375 167.410156 77.21875 C 171.1875 80.15625 173.625 84.167969 174.714844 89.25 L 161.429688 89.25 C 160.632812 87.570312 159.519531 86.289062 158.09375 85.40625 C 156.710938 84.523438 155.09375 84.085938 153.246094 84.085938 C 150.394531 84.085938 148.105469 85.113281 146.382812 87.171875 C 144.707031 89.1875 143.867188 91.894531 143.867188 95.296875 C 143.867188 98.742188 144.707031 101.492188 146.382812 103.550781 C 148.105469 105.566406 150.394531 106.574219 153.246094 106.574219 C 155.09375 106.574219 156.710938 106.132812 158.09375 105.253906 C 159.519531 104.371094 160.632812 103.089844 161.429688 101.410156 L 174.714844 101.410156 C 173.625 106.492188 171.1875 110.523438 167.410156 113.503906 C 163.632812 116.445312 158.976562 117.914062 153.433594 117.914062 C 149.070312 117.914062 145.210938 116.96875 141.851562 115.078125 C 138.492188 113.148438 135.890625 110.480469 134.046875 107.078125 C 132.242188 103.636719 131.335938 99.707031 131.335938 95.296875 Z M 201.835938 118.042969 C 197.679688 118.042969 193.863281 117.074219 190.378906 115.144531 C 186.894531 113.167969 184.125 110.460938 182.066406 107.015625 C 180.054688 103.53125 179.046875 99.601562 179.046875 95.234375 C 179.046875 90.867188 180.054688 86.960938 182.066406 83.515625 C 184.125 80.03125 186.894531 77.320312 190.378906 75.390625 C 193.863281 73.457031 197.679688 72.492188 201.835938 72.492188 C 206.035156 72.492188 209.851562 73.457031 213.292969 75.390625 C 216.777344 77.320312 219.527344 80.03125 221.542969 83.515625 C 223.554688 86.960938 224.5625 90.867188 224.5625 95.234375 C 224.5625 99.601562 223.554688 103.53125 221.542969 107.015625 C 219.527344 110.460938 216.777344 113.167969 213.292969 115.144531 C 209.8125 117.074219 205.992188 118.042969 201.835938 118.042969 Z M 201.835938 106.574219 C 204.984375 106.574219 207.460938 105.546875 209.265625 103.488281 C 211.113281 101.429688 212.035156 98.679688 212.035156 95.234375 C 212.035156 91.707031 211.113281 88.933594 209.265625 86.917969 C 207.460938 84.859375 204.984375 83.832031 201.835938 83.832031 C 198.648438 83.832031 196.148438 84.859375 194.34375 86.917969 C 192.539062 88.933594 191.636719 91.707031 191.636719 95.234375 C 191.636719 98.722656 192.539062 101.492188 194.34375 103.550781 C 196.148438 105.566406 198.648438 106.574219 201.835938 106.574219 Z M 247.675781 73.183594 C 252.335938 73.183594 256.40625 74.128906 259.890625 76.019531 C 263.414062 77.867188 266.121094 80.472656 268.011719 83.832031 C 269.898438 87.191406 270.84375 91.035156 270.84375 95.359375 C 270.84375 99.644531 269.878906 103.46875 267.949219 106.828125 C 266.058594 110.1875 263.351562 112.832031 259.824219 114.765625 C 256.34375 116.65625 252.292969 117.601562 247.675781 117.601562 L 230.109375 117.601562 L 230.109375 73.183594 Z M 246.730469 106.699219 C 250.339844 106.699219 253.171875 105.714844 255.230469 103.738281 C 257.285156 101.765625 258.316406 98.972656 258.316406 95.359375 C 258.316406 91.707031 257.285156 88.894531 255.230469 86.917969 C 253.171875 84.902344 250.339844 83.894531 246.730469 83.894531 L 242.449219 83.894531 L 242.449219 106.699219 Z M 288.746094 83.074219 L 288.746094 90.320312 L 302.910156 90.320312 L 302.910156 99.707031 L 288.746094 99.707031 L 288.746094 107.710938 L 304.800781 107.710938 L 304.800781 117.601562 L 276.40625 117.601562 L 276.40625 73.183594 L 304.800781 73.183594 L 304.800781 83.074219 Z M 288.746094 83.074219 " fill-opacity="1" fill-rule="nonzero"/></g><path fill="#d3d2d2" d="M 58.828125 147.890625 C 59.128906 147.363281 59.578125 146.925781 60.171875 146.578125 C 60.777344 146.222656 61.476562 146.042969 62.269531 146.042969 C 63.085938 146.042969 63.824219 146.238281 64.484375 146.628906 C 65.15625 147.023438 65.683594 147.578125 66.0625 148.292969 C 66.445312 149 66.632812 149.824219 66.632812 150.761719 C 66.632812 151.691406 66.445312 152.523438 66.0625 153.25 C 65.683594 153.976562 65.15625 154.542969 64.484375 154.945312 C 63.824219 155.351562 63.085938 155.550781 62.269531 155.550781 C 61.484375 155.550781 60.792969 155.378906 60.1875 155.03125 C 59.59375 154.671875 59.140625 154.230469 58.828125 153.703125 L 58.828125 159.769531 L 57.300781 159.769531 L 57.300781 146.195312 L 58.828125 146.195312 Z M 65.074219 150.761719 C 65.074219 150.070312 64.933594 149.464844 64.652344 148.949219 C 64.375 148.433594 63.992188 148.042969 63.511719 147.773438 C 63.042969 147.503906 62.519531 147.371094 61.949219 147.371094 C 61.390625 147.371094 60.871094 147.507812 60.390625 147.789062 C 59.917969 148.058594 59.539062 148.457031 59.246094 148.984375 C 58.96875 149.496094 58.828125 150.097656 58.828125 150.78125 C 58.828125 151.472656 58.96875 152.085938 59.246094 152.609375 C 59.539062 153.125 59.917969 153.523438 60.390625 153.804688 C 60.871094 154.074219 61.390625 154.207031 61.949219 154.207031 C 62.519531 154.207031 63.042969 154.074219 63.511719 153.804688 C 63.992188 153.523438 64.375 153.125 64.652344 152.609375 C 64.933594 152.085938 65.074219 151.46875 65.074219 150.761719 Z M 70.171875 147.6875 C 70.441406 147.164062 70.824219 146.753906 71.316406 146.460938 C 71.820312 146.171875 72.429688 146.027344 73.144531 146.027344 L 73.144531 147.605469 L 72.742188 147.605469 C 71.03125 147.605469 70.171875 148.535156 70.171875 150.394531 L 70.171875 155.398438 L 68.644531 155.398438 L 68.644531 146.195312 L 70.171875 146.195312 Z M 83.066406 146.195312 L 83.066406 155.398438 L 81.539062 155.398438 L 81.539062 154.039062 C 81.25 154.507812 80.839844 154.878906 80.3125 155.148438 C 79.800781 155.40625 79.226562 155.535156 78.601562 155.535156 C 77.886719 155.535156 77.242188 155.390625 76.671875 155.097656 C 76.101562 154.796875 75.648438 154.347656 75.3125 153.753906 C 74.988281 153.160156 74.824219 152.4375 74.824219 151.585938 L 74.824219 146.195312 L 76.335938 146.195312 L 76.335938 151.386719 C 76.335938 152.292969 76.566406 152.992188 77.023438 153.484375 C 77.480469 153.964844 78.109375 154.207031 78.902344 154.207031 C 79.722656 154.207031 80.363281 153.957031 80.835938 153.453125 C 81.304688 152.945312 81.539062 152.214844 81.539062 151.25 L 81.539062 146.195312 Z M 94.042969 150.445312 C 94.042969 150.734375 94.023438 151.042969 93.992188 151.367188 L 86.636719 151.367188 C 86.691406 152.273438 87 152.984375 87.5625 153.5 C 88.132812 154.003906 88.820312 154.257812 89.625 154.257812 C 90.285156 154.257812 90.835938 154.105469 91.269531 153.804688 C 91.71875 153.492188 92.03125 153.078125 92.210938 152.5625 L 93.855469 152.5625 C 93.609375 153.445312 93.117188 154.167969 92.378906 154.726562 C 91.640625 155.277344 90.722656 155.550781 89.625 155.550781 C 88.753906 155.550781 87.96875 155.355469 87.273438 154.964844 C 86.59375 154.570312 86.054688 154.015625 85.664062 153.300781 C 85.273438 152.570312 85.074219 151.730469 85.074219 150.78125 C 85.074219 149.828125 85.265625 148.992188 85.648438 148.277344 C 86.027344 147.558594 86.558594 147.011719 87.242188 146.628906 C 87.9375 146.238281 88.730469 146.042969 89.625 146.042969 C 90.5 146.042969 91.269531 146.234375 91.941406 146.613281 C 92.613281 146.996094 93.128906 147.519531 93.488281 148.191406 C 93.855469 148.851562 94.042969 149.605469 94.042969 150.445312 Z M 92.464844 150.125 C 92.464844 149.542969 92.335938 149.042969 92.078125 148.628906 C 91.820312 148.203125 91.46875 147.886719 91.019531 147.671875 C 90.582031 147.449219 90.097656 147.335938 89.558594 147.335938 C 88.785156 147.335938 88.125 147.582031 87.578125 148.074219 C 87.039062 148.566406 86.734375 149.25 86.652344 150.125 Z M 97.585938 147.90625 C 97.898438 147.359375 98.359375 146.910156 98.960938 146.5625 C 99.566406 146.214844 100.253906 146.042969 101.027344 146.042969 C 101.855469 146.042969 102.597656 146.238281 103.261719 146.628906 C 103.921875 147.023438 104.441406 147.578125 104.820312 148.292969 C 105.203125 149 105.390625 149.824219 105.390625 150.761719 C 105.390625 151.691406 105.203125 152.523438 104.820312 153.25 C 104.441406 153.976562 103.914062 154.542969 103.242188 154.945312 C 102.582031 155.351562 101.84375 155.550781 101.027344 155.550781 C 100.230469 155.550781 99.53125 155.378906 98.929688 155.03125 C 98.335938 154.683594 97.886719 154.242188 97.585938 153.703125 L 97.585938 155.398438 L 96.058594 155.398438 L 96.058594 142.96875 L 97.585938 142.96875 Z M 103.832031 150.761719 C 103.832031 150.070312 103.691406 149.464844 103.410156 148.949219 C 103.132812 148.433594 102.75 148.042969 102.269531 147.773438 C 101.800781 147.503906 101.277344 147.371094 100.707031 147.371094 C 100.148438 147.371094 99.628906 147.507812 99.148438 147.789062 C 98.675781 148.058594 98.296875 148.457031 98.003906 148.984375 C 97.726562 149.496094 97.585938 150.097656 97.585938 150.78125 C 97.585938 151.472656 97.726562 152.085938 98.003906 152.609375 C 98.296875 153.125 98.675781 153.523438 99.148438 153.804688 C 99.628906 154.074219 100.148438 154.207031 100.707031 154.207031 C 101.277344 154.207031 101.800781 154.074219 102.269531 153.804688 C 102.75 153.523438 103.132812 153.125 103.410156 152.609375 C 103.691406 152.085938 103.832031 151.46875 103.832031 150.761719 Z M 106.832031 150.761719 C 106.832031 149.824219 107.023438 149 107.402344 148.292969 C 107.785156 147.578125 108.304688 147.023438 108.964844 146.628906 C 109.636719 146.238281 110.378906 146.042969 111.195312 146.042969 C 112.003906 146.042969 112.703125 146.214844 113.296875 146.5625 C 113.886719 146.910156 114.332031 147.347656 114.621094 147.875 L 114.621094 146.195312 L 116.167969 146.195312 L 116.167969 155.398438 L 114.621094 155.398438 L 114.621094 153.6875 C 114.320312 154.222656 113.867188 154.671875 113.261719 155.03125 C 112.667969 155.378906 111.976562 155.550781 111.179688 155.550781 C 110.363281 155.550781 109.625 155.351562 108.964844 154.945312 C 108.304688 154.542969 107.785156 153.976562 107.402344 153.25 C 107.023438 152.523438 106.832031 151.691406 106.832031 150.761719 Z M 114.621094 150.78125 C 114.621094 150.085938 114.480469 149.480469 114.203125 148.964844 C 113.921875 148.449219 113.542969 148.058594 113.058594 147.789062 C 112.589844 147.507812 112.070312 147.371094 111.5 147.371094 C 110.929688 147.371094 110.40625 147.503906 109.9375 147.773438 C 109.46875 148.042969 109.09375 148.433594 108.8125 148.949219 C 108.53125 149.464844 108.394531 150.070312 108.394531 150.761719 C 108.394531 151.46875 108.53125 152.085938 108.8125 152.609375 C 109.09375 153.125 109.46875 153.523438 109.9375 153.804688 C 110.40625 154.074219 110.929688 154.207031 111.5 154.207031 C 112.070312 154.207031 112.589844 154.074219 113.058594 153.804688 C 113.542969 153.523438 113.921875 153.125 114.203125 152.609375 C 114.480469 152.085938 114.621094 151.472656 114.621094 150.78125 Z M 127.707031 146.027344 C 128.824219 146.027344 129.730469 146.367188 130.425781 147.050781 C 131.121094 147.722656 131.464844 148.695312 131.464844 149.972656 L 131.464844 155.398438 L 129.957031 155.398438 L 129.957031 150.191406 C 129.957031 149.273438 129.726562 148.574219 129.265625 148.09375 C 128.808594 147.597656 128.183594 147.351562 127.386719 147.351562 C 126.582031 147.351562 125.9375 147.605469 125.457031 148.109375 C 124.988281 148.613281 124.75 149.347656 124.75 150.308594 L 124.75 155.398438 L 123.222656 155.398438 L 123.222656 146.195312 L 124.75 146.195312 L 124.75 147.503906 C 125.054688 147.035156 125.460938 146.667969 125.976562 146.410156 C 126.503906 146.15625 127.078125 146.027344 127.707031 146.027344 Z M 142.121094 146.195312 L 142.121094 155.398438 L 140.59375 155.398438 L 140.59375 154.039062 C 140.304688 154.507812 139.894531 154.878906 139.367188 155.148438 C 138.855469 155.40625 138.28125 155.535156 137.65625 155.535156 C 136.941406 155.535156 136.296875 155.390625 135.726562 155.097656 C 135.152344 154.796875 134.699219 154.347656 134.363281 153.753906 C 134.039062 153.160156 133.878906 152.4375 133.878906 151.585938 L 133.878906 146.195312 L 135.390625 146.195312 L 135.390625 151.386719 C 135.390625 152.292969 135.617188 152.992188 136.078125 153.484375 C 136.535156 153.964844 137.164062 154.207031 137.957031 154.207031 C 138.773438 154.207031 139.417969 153.957031 139.886719 153.453125 C 140.359375 152.945312 140.59375 152.214844 140.59375 151.25 L 140.59375 146.195312 Z M 153.09375 150.445312 C 153.09375 150.734375 153.078125 151.042969 153.042969 151.367188 L 145.691406 151.367188 C 145.746094 152.273438 146.054688 152.984375 146.613281 153.5 C 147.1875 154.003906 147.875 154.257812 148.679688 154.257812 C 149.339844 154.257812 149.886719 154.105469 150.324219 153.804688 C 150.773438 153.492188 151.085938 153.078125 151.265625 152.5625 L 152.910156 152.5625 C 152.664062 153.445312 152.171875 154.167969 151.433594 154.726562 C 150.695312 155.277344 149.777344 155.550781 148.679688 155.550781 C 147.808594 155.550781 147.023438 155.355469 146.328125 154.964844 C 145.648438 154.570312 145.109375 154.015625 144.71875 153.300781 C 144.324219 152.570312 144.128906 151.730469 144.128906 150.78125 C 144.128906 149.828125 144.320312 148.992188 144.699219 148.277344 C 145.082031 147.558594 145.613281 147.011719 146.296875 146.628906 C 146.988281 146.238281 147.785156 146.042969 148.679688 146.042969 C 149.554688 146.042969 150.324219 146.234375 150.996094 146.613281 C 151.667969 146.996094 152.183594 147.519531 152.542969 148.191406 C 152.910156 148.851562 153.09375 149.605469 153.09375 150.445312 Z M 151.515625 150.125 C 151.515625 149.542969 151.386719 149.042969 151.128906 148.628906 C 150.875 148.203125 150.519531 147.886719 150.074219 147.671875 C 149.636719 147.449219 149.148438 147.335938 148.613281 147.335938 C 147.839844 147.335938 147.179688 147.582031 146.632812 148.074219 C 146.09375 148.566406 145.785156 149.25 145.707031 150.125 Z M 158.367188 155.550781 C 157.664062 155.550781 157.03125 155.433594 156.472656 155.199219 C 155.910156 154.953125 155.46875 154.617188 155.144531 154.191406 C 154.820312 153.753906 154.640625 153.253906 154.609375 152.695312 L 156.1875 152.695312 C 156.230469 153.15625 156.445312 153.53125 156.824219 153.820312 C 157.214844 154.113281 157.726562 154.257812 158.351562 154.257812 C 158.933594 154.257812 159.394531 154.128906 159.730469 153.871094 C 160.0625 153.613281 160.230469 153.289062 160.230469 152.898438 C 160.230469 152.492188 160.054688 152.195312 159.695312 152.007812 C 159.335938 151.804688 158.78125 151.609375 158.03125 151.417969 C 157.351562 151.238281 156.789062 151.058594 156.355469 150.878906 C 155.929688 150.691406 155.558594 150.414062 155.246094 150.058594 C 154.945312 149.6875 154.792969 149.207031 154.792969 148.613281 C 154.792969 148.140625 154.933594 147.710938 155.210938 147.320312 C 155.492188 146.925781 155.890625 146.617188 156.40625 146.394531 C 156.917969 146.160156 157.507812 146.042969 158.167969 146.042969 C 159.183594 146.042969 160.007812 146.300781 160.636719 146.816406 C 161.261719 147.332031 161.597656 148.035156 161.640625 148.933594 L 160.113281 148.933594 C 160.082031 148.449219 159.886719 148.0625 159.527344 147.773438 C 159.179688 147.480469 158.710938 147.335938 158.117188 147.335938 C 157.566406 147.335938 157.132812 147.453125 156.808594 147.6875 C 156.484375 147.925781 156.320312 148.230469 156.320312 148.613281 C 156.320312 148.914062 156.414062 149.167969 156.605469 149.367188 C 156.808594 149.558594 157.054688 149.714844 157.34375 149.839844 C 157.648438 149.953125 158.0625 150.078125 158.585938 150.226562 C 159.246094 150.40625 159.785156 150.582031 160.199219 150.761719 C 160.613281 150.929688 160.964844 151.1875 161.257812 151.535156 C 161.558594 151.882812 161.714844 152.335938 161.726562 152.898438 C 161.726562 153.402344 161.585938 153.855469 161.308594 154.257812 C 161.027344 154.660156 160.628906 154.980469 160.113281 155.214844 C 159.609375 155.4375 159.027344 155.550781 158.367188 155.550781 Z M 165.746094 147.453125 L 165.746094 152.878906 C 165.746094 153.328125 165.839844 153.648438 166.03125 153.835938 C 166.222656 154.015625 166.550781 154.105469 167.023438 154.105469 L 168.148438 154.105469 L 168.148438 155.398438 L 166.769531 155.398438 C 165.921875 155.398438 165.28125 155.203125 164.855469 154.8125 C 164.429688 154.421875 164.21875 153.777344 164.21875 152.878906 L 164.21875 147.453125 L 163.027344 147.453125 L 163.027344 146.195312 L 164.21875 146.195312 L 164.21875 143.875 L 165.746094 143.875 L 165.746094 146.195312 L 168.148438 146.195312 L 168.148438 147.453125 Z M 171.527344 147.6875 C 171.792969 147.164062 172.175781 146.753906 172.667969 146.460938 C 173.171875 146.171875 173.78125 146.027344 174.496094 146.027344 L 174.496094 147.605469 L 174.09375 147.605469 C 172.382812 147.605469 171.527344 148.535156 171.527344 150.394531 L 171.527344 155.398438 L 170 155.398438 L 170 146.195312 L 171.527344 146.195312 Z M 180.273438 155.550781 C 179.410156 155.550781 178.628906 155.355469 177.921875 154.964844 C 177.230469 154.570312 176.679688 154.015625 176.277344 153.300781 C 175.886719 152.570312 175.691406 151.730469 175.691406 150.78125 C 175.691406 149.839844 175.890625 149.011719 176.292969 148.292969 C 176.707031 147.566406 177.269531 147.011719 177.972656 146.628906 C 178.679688 146.238281 179.46875 146.042969 180.339844 146.042969 C 181.214844 146.042969 182.003906 146.238281 182.707031 146.628906 C 183.414062 147.011719 183.964844 147.558594 184.371094 148.277344 C 184.785156 148.992188 184.992188 149.828125 184.992188 150.78125 C 184.992188 151.730469 184.777344 152.570312 184.351562 153.300781 C 183.9375 154.015625 183.375 154.570312 182.65625 154.964844 C 181.941406 155.355469 181.144531 155.550781 180.273438 155.550781 Z M 180.273438 154.207031 C 180.820312 154.207031 181.335938 154.078125 181.816406 153.820312 C 182.300781 153.5625 182.683594 153.175781 182.976562 152.660156 C 183.277344 152.144531 183.429688 151.519531 183.429688 150.78125 C 183.429688 150.039062 183.285156 149.414062 182.992188 148.898438 C 182.703125 148.382812 182.320312 148.003906 181.851562 147.757812 C 181.382812 147.5 180.871094 147.371094 180.324219 147.371094 C 179.765625 147.371094 179.25 147.5 178.777344 147.757812 C 178.320312 148.003906 177.949219 148.382812 177.671875 148.898438 C 177.390625 149.414062 177.25 150.039062 177.25 150.78125 C 177.25 151.53125 177.386719 152.164062 177.652344 152.679688 C 177.933594 153.195312 178.304688 153.582031 178.761719 153.835938 C 179.222656 154.085938 179.726562 154.207031 180.273438 154.207031 Z M 190.257812 155.550781 C 189.550781 155.550781 188.917969 155.433594 188.359375 155.199219 C 187.800781 154.953125 187.359375 154.617188 187.03125 154.191406 C 186.707031 153.753906 186.53125 153.253906 186.496094 152.695312 L 188.074219 152.695312 C 188.117188 153.15625 188.332031 153.53125 188.710938 153.820312 C 189.105469 154.113281 189.613281 154.257812 190.238281 154.257812 C 190.820312 154.257812 191.28125 154.128906 191.617188 153.871094 C 191.953125 153.613281 192.121094 153.289062 192.121094 152.898438 C 192.121094 152.492188 191.941406 152.195312 191.582031 152.007812 C 191.226562 151.804688 190.671875 151.609375 189.921875 151.417969 C 189.238281 151.238281 188.679688 151.058594 188.242188 150.878906 C 187.816406 150.691406 187.445312 150.414062 187.132812 150.058594 C 186.832031 149.6875 186.679688 149.207031 186.679688 148.613281 C 186.679688 148.140625 186.820312 147.710938 187.101562 147.320312 C 187.378906 146.925781 187.777344 146.617188 188.292969 146.394531 C 188.808594 146.160156 189.394531 146.042969 190.054688 146.042969 C 191.074219 146.042969 191.894531 146.300781 192.523438 146.816406 C 193.148438 147.332031 193.484375 148.035156 193.53125 148.933594 L 192.003906 148.933594 C 191.96875 148.449219 191.773438 148.0625 191.414062 147.773438 C 191.066406 147.480469 190.597656 147.335938 190.003906 147.335938 C 189.457031 147.335938 189.019531 147.453125 188.695312 147.6875 C 188.371094 147.925781 188.207031 148.230469 188.207031 148.613281 C 188.207031 148.914062 188.304688 149.167969 188.492188 149.367188 C 188.695312 149.558594 188.941406 149.714844 189.230469 149.839844 C 189.535156 149.953125 189.949219 150.078125 190.472656 150.226562 C 191.136719 150.40625 191.671875 150.582031 192.085938 150.761719 C 192.5 150.929688 192.851562 151.1875 193.144531 151.535156 C 193.445312 151.882812 193.601562 152.335938 193.613281 152.898438 C 193.613281 153.402344 193.472656 153.855469 193.195312 154.257812 C 192.914062 154.660156 192.515625 154.980469 192.003906 155.214844 C 191.5 155.4375 190.917969 155.550781 190.257812 155.550781 Z M 201.773438 147.890625 C 202.078125 147.363281 202.523438 146.925781 203.117188 146.578125 C 203.722656 146.222656 204.421875 146.042969 205.214844 146.042969 C 206.03125 146.042969 206.773438 146.238281 207.433594 146.628906 C 208.105469 147.023438 208.628906 147.578125 209.011719 148.292969 C 209.390625 149 209.582031 149.824219 209.582031 150.761719 C 209.582031 151.691406 209.390625 152.523438 209.011719 153.25 C 208.628906 153.976562 208.105469 154.542969 207.433594 154.945312 C 206.773438 155.351562 206.03125 155.550781 205.214844 155.550781 C 204.433594 155.550781 203.738281 155.378906 203.132812 155.03125 C 202.542969 154.671875 202.085938 154.230469 201.773438 153.703125 L 201.773438 159.769531 L 200.246094 159.769531 L 200.246094 146.195312 L 201.773438 146.195312 Z M 208.019531 150.761719 C 208.019531 150.070312 207.878906 149.464844 207.601562 148.949219 C 207.320312 148.433594 206.941406 148.042969 206.457031 147.773438 C 205.988281 147.503906 205.46875 147.371094 204.898438 147.371094 C 204.335938 147.371094 203.816406 147.507812 203.335938 147.789062 C 202.867188 148.058594 202.484375 148.457031 202.195312 148.984375 C 201.914062 149.496094 201.773438 150.097656 201.773438 150.78125 C 201.773438 151.472656 201.914062 152.085938 202.195312 152.609375 C 202.484375 153.125 202.867188 153.523438 203.335938 153.804688 C 203.816406 154.074219 204.335938 154.207031 204.898438 154.207031 C 205.46875 154.207031 205.988281 154.074219 206.457031 153.804688 C 206.941406 153.523438 207.320312 153.125 207.601562 152.609375 C 207.878906 152.085938 208.019531 151.46875 208.019531 150.761719 Z M 213.121094 142.96875 L 213.121094 155.398438 L 211.589844 155.398438 L 211.589844 142.96875 Z M 215.152344 150.761719 C 215.152344 149.824219 215.34375 149 215.722656 148.292969 C 216.105469 147.578125 216.625 147.023438 217.285156 146.628906 C 217.957031 146.238281 218.699219 146.042969 219.515625 146.042969 C 220.324219 146.042969 221.023438 146.214844 221.617188 146.5625 C 222.210938 146.910156 222.652344 147.347656 222.941406 147.875 L 222.941406 146.195312 L 224.488281 146.195312 L 224.488281 155.398438 L 222.941406 155.398438 L 222.941406 153.6875 C 222.640625 154.222656 222.1875 154.671875 221.582031 155.03125 C 220.988281 155.378906 220.296875 155.550781 219.5 155.550781 C 218.683594 155.550781 217.945312 155.351562 217.285156 154.945312 C 216.625 154.542969 216.105469 153.976562 215.722656 153.25 C 215.34375 152.523438 215.152344 151.691406 215.152344 150.761719 Z M 222.941406 150.78125 C 222.941406 150.085938 222.800781 149.480469 222.523438 148.964844 C 222.242188 148.449219 221.863281 148.058594 221.382812 147.789062 C 220.910156 147.507812 220.390625 147.371094 219.820312 147.371094 C 219.25 147.371094 218.726562 147.503906 218.257812 147.773438 C 217.789062 148.042969 217.414062 148.433594 217.132812 148.949219 C 216.855469 149.464844 216.714844 150.070312 216.714844 150.761719 C 216.714844 151.46875 216.855469 152.085938 217.132812 152.609375 C 217.414062 153.125 217.789062 153.523438 218.257812 153.804688 C 218.726562 154.074219 219.25 154.207031 219.820312 154.207031 C 220.390625 154.207031 220.910156 154.074219 221.382812 153.804688 C 221.863281 153.523438 222.242188 153.125 222.523438 152.609375 C 222.800781 152.085938 222.941406 151.472656 222.941406 150.78125 Z M 228.933594 147.453125 L 228.933594 152.878906 C 228.933594 153.328125 229.027344 153.648438 229.21875 153.835938 C 229.40625 154.015625 229.738281 154.105469 230.207031 154.105469 L 231.332031 154.105469 L 231.332031 155.398438 L 229.957031 155.398438 C 229.105469 155.398438 228.46875 155.203125 228.042969 154.8125 C 227.617188 154.421875 227.402344 153.777344 227.402344 152.878906 L 227.402344 147.453125 L 226.210938 147.453125 L 226.210938 146.195312 L 227.402344 146.195312 L 227.402344 143.875 L 228.933594 143.875 L 228.933594 146.195312 L 231.332031 146.195312 L 231.332031 147.453125 Z M 233.972656 144.699219 C 233.683594 144.699219 233.433594 144.597656 233.234375 144.394531 C 233.03125 144.195312 232.933594 143.949219 232.933594 143.65625 C 232.933594 143.367188 233.03125 143.121094 233.234375 142.917969 C 233.433594 142.714844 233.683594 142.613281 233.972656 142.613281 C 234.253906 142.613281 234.488281 142.714844 234.675781 142.917969 C 234.878906 143.121094 234.980469 143.367188 234.980469 143.65625 C 234.980469 143.949219 234.878906 144.195312 234.675781 144.394531 C 234.488281 144.597656 234.253906 144.699219 233.972656 144.699219 Z M 234.710938 146.195312 L 234.710938 155.398438 L 233.183594 155.398438 L 233.183594 146.195312 Z M 238.84375 142.96875 L 238.84375 155.398438 L 237.316406 155.398438 L 237.316406 142.96875 Z M 242.972656 142.96875 L 242.972656 155.398438 L 241.445312 155.398438 L 241.445312 142.96875 Z M 249.589844 155.550781 C 248.730469 155.550781 247.945312 155.355469 247.242188 154.964844 C 246.546875 154.570312 246 154.015625 245.59375 153.300781 C 245.203125 152.570312 245.007812 151.730469 245.007812 150.78125 C 245.007812 149.839844 245.210938 149.011719 245.613281 148.292969 C 246.027344 147.566406 246.585938 147.011719 247.289062 146.628906 C 247.996094 146.238281 248.785156 146.042969 249.65625 146.042969 C 250.53125 146.042969 251.320312 146.238281 252.023438 146.628906 C 252.730469 147.011719 253.285156 147.558594 253.6875 148.277344 C 254.101562 148.992188 254.308594 149.828125 254.308594 150.78125 C 254.308594 151.730469 254.09375 152.570312 253.671875 153.300781 C 253.257812 154.015625 252.691406 154.570312 251.976562 154.964844 C 251.257812 155.355469 250.464844 155.550781 249.589844 155.550781 Z M 249.589844 154.207031 C 250.140625 154.207031 250.652344 154.078125 251.136719 153.820312 C 251.617188 153.5625 252.003906 153.175781 252.292969 152.660156 C 252.597656 152.144531 252.746094 151.519531 252.746094 150.78125 C 252.746094 150.039062 252.601562 149.414062 252.308594 148.898438 C 252.019531 148.382812 251.640625 148.003906 251.167969 147.757812 C 250.699219 147.5 250.1875 147.371094 249.640625 147.371094 C 249.082031 147.371094 248.566406 147.5 248.097656 147.757812 C 247.636719 148.003906 247.269531 148.382812 246.988281 148.898438 C 246.707031 149.414062 246.570312 150.039062 246.570312 150.78125 C 246.570312 151.53125 246.703125 152.164062 246.972656 152.679688 C 247.25 153.195312 247.621094 153.582031 248.078125 153.835938 C 248.539062 154.085938 249.042969 154.207031 249.589844 154.207031 Z M 259.574219 155.550781 C 258.867188 155.550781 258.234375 155.433594 257.675781 155.199219 C 257.117188 154.953125 256.675781 154.617188 256.351562 154.191406 C 256.027344 153.753906 255.847656 153.253906 255.8125 152.695312 L 257.390625 152.695312 C 257.4375 153.15625 257.648438 153.53125 258.03125 153.820312 C 258.421875 154.113281 258.929688 154.257812 259.558594 154.257812 C 260.140625 154.257812 260.597656 154.128906 260.933594 153.871094 C 261.269531 153.613281 261.4375 153.289062 261.4375 152.898438 C 261.4375 152.492188 261.257812 152.195312 260.898438 152.007812 C 260.542969 151.804688 259.988281 151.609375 259.238281 151.417969 C 258.554688 151.238281 257.996094 151.058594 257.558594 150.878906 C 257.132812 150.691406 256.765625 150.414062 256.453125 150.058594 C 256.148438 149.6875 255.996094 149.207031 255.996094 148.613281 C 255.996094 148.140625 256.136719 147.710938 256.417969 147.320312 C 256.695312 146.925781 257.09375 146.617188 257.609375 146.394531 C 258.125 146.160156 258.710938 146.042969 259.371094 146.042969 C 260.390625 146.042969 261.214844 146.300781 261.839844 146.816406 C 262.46875 147.332031 262.800781 148.035156 262.847656 148.933594 L 261.320312 148.933594 C 261.285156 148.449219 261.089844 148.0625 260.730469 147.773438 C 260.386719 147.480469 259.914062 147.335938 259.320312 147.335938 C 258.773438 147.335938 258.335938 147.453125 258.011719 147.6875 C 257.6875 147.925781 257.527344 148.230469 257.527344 148.613281 C 257.527344 148.914062 257.621094 149.167969 257.8125 149.367188 C 258.011719 149.558594 258.257812 149.714844 258.550781 149.839844 C 258.851562 149.953125 259.265625 150.078125 259.792969 150.226562 C 260.453125 150.40625 260.988281 150.582031 261.402344 150.761719 C 261.816406 150.929688 262.171875 151.1875 262.460938 151.535156 C 262.761719 151.882812 262.921875 152.335938 262.929688 152.898438 C 262.929688 153.402344 262.792969 153.855469 262.511719 154.257812 C 262.230469 154.660156 261.835938 154.980469 261.320312 155.214844 C 260.816406 155.4375 260.234375 155.550781 259.574219 155.550781 Z M 259.574219 155.550781 " fill-opacity="1" fill-rule="nonzero"/><g clip-path="url(#c87a0583ff)"><path fill="#ab9746" d="M 66.476562 16.539062 C 65.910156 16.539062 65.453125 17 65.449219 17.570312 C 65.449219 17.929688 65.632812 18.242188 65.910156 18.425781 C 65.65625 20.945312 63.542969 22.90625 60.972656 22.90625 C 59.605469 22.90625 58.359375 22.347656 57.460938 21.445312 C 56.671875 20.65625 56.148438 19.601562 56.03125 18.429688 C 56.308594 18.246094 56.492188 17.929688 56.492188 17.570312 C 56.492188 17.003906 56.035156 16.542969 55.46875 16.539062 C 54.90625 16.539062 54.445312 17 54.445312 17.570312 C 54.445312 17.929688 54.628906 18.246094 54.910156 18.429688 C 54.652344 20.945312 52.535156 22.90625 49.96875 22.90625 C 48.597656 22.90625 47.355469 22.347656 46.457031 21.445312 C 45.671875 20.65625 45.148438 19.601562 45.027344 18.425781 C 45.304688 18.242188 45.488281 17.929688 45.488281 17.570312 C 45.488281 17.003906 45.03125 16.542969 44.464844 16.539062 C 43.902344 16.539062 43.441406 17 43.441406 17.570312 C 43.441406 18.027344 43.742188 18.414062 44.160156 18.546875 L 47.273438 30.695312 L 63.746094 30.695312 L 66.789062 18.542969 C 67.199219 18.410156 67.5 18.027344 67.5 17.570312 C 67.5 17.003906 67.039062 16.542969 66.476562 16.539062 " fill-opacity="1" fill-rule="nonzero"/></g><path fill="#ab9746" d="M 58.535156 94.75 C 58.816406 94.726562 59.113281 94.703125 59.425781 94.65625 C 60.046875 94.566406 60.742188 94.503906 61.488281 94.347656 C 61.863281 94.277344 62.253906 94.214844 62.652344 94.128906 C 63.054688 94.035156 63.464844 93.9375 63.894531 93.835938 C 65.59375 93.398438 67.484375 92.789062 69.460938 91.914062 C 71.433594 91.039062 73.492188 89.902344 75.511719 88.464844 C 77.527344 87.035156 79.503906 85.304688 81.316406 83.304688 C 83.117188 81.292969 84.742188 79.003906 86.105469 76.515625 C 87.457031 74.019531 88.503906 71.316406 89.230469 68.53125 C 90.652344 62.945312 90.65625 57.03125 89.417969 51.789062 C 88.804688 49.164062 87.914062 46.703125 86.835938 44.484375 C 85.765625 42.261719 84.503906 40.292969 83.214844 38.578125 C 81.910156 36.871094 80.566406 35.425781 79.300781 34.230469 C 78.03125 33.035156 76.835938 32.09375 75.820312 31.363281 C 75.320312 30.988281 74.847656 30.695312 74.449219 30.417969 C 74.304688 30.328125 74.167969 30.242188 74.039062 30.160156 C 73.980469 30.089844 73.746094 29.816406 73.425781 29.492188 C 73.042969 29.125 72.546875 28.679688 72.078125 28.4375 C 71.84375 28.316406 71.617188 28.203125 71.402344 28.125 C 71.1875 28.046875 70.984375 27.988281 70.808594 27.953125 C 70.460938 27.882812 70.21875 27.902344 70.160156 28.027344 C 70.101562 28.152344 70.238281 28.359375 70.5 28.589844 C 70.632812 28.703125 70.796875 28.824219 70.984375 28.945312 C 71.171875 29.070312 71.378906 29.203125 71.605469 29.320312 C 72.0625 29.554688 72.664062 29.773438 73.167969 29.921875 C 73.589844 30.054688 73.929688 30.144531 74.023438 30.171875 C 74.152344 30.253906 74.289062 30.34375 74.4375 30.4375 C 74.832031 30.714844 75.304688 31.015625 75.800781 31.394531 C 76.804688 32.132812 77.992188 33.082031 79.246094 34.285156 C 80.5 35.488281 81.824219 36.945312 83.109375 38.65625 C 84.378906 40.375 85.617188 42.347656 86.660156 44.570312 C 87.714844 46.78125 88.574219 49.238281 89.160156 51.847656 C 90.34375 57.0625 90.285156 62.917969 88.832031 68.425781 C 88.085938 71.171875 87.027344 73.832031 85.671875 76.277344 C 84.308594 78.714844 82.6875 80.957031 80.898438 82.917969 C 79.09375 84.871094 77.140625 86.550781 75.144531 87.941406 C 73.152344 89.332031 71.125 90.429688 69.179688 91.265625 C 67.234375 92.109375 65.378906 92.6875 63.710938 93.101562 C 63.292969 93.195312 62.886719 93.289062 62.496094 93.375 C 62.105469 93.457031 61.722656 93.515625 61.355469 93.582031 C 60.628906 93.726562 59.945312 93.78125 59.335938 93.863281 C 59.03125 93.90625 58.738281 93.925781 58.464844 93.945312 C 58.191406 93.964844 57.933594 93.984375 57.695312 94 C 57.21875 94.042969 56.8125 94.039062 56.480469 94.046875 C 55.824219 94.0625 55.46875 94.070312 55.46875 94.070312 C 55.46875 94.070312 55.117188 94.0625 54.457031 94.046875 C 54.128906 94.039062 53.722656 94.042969 53.246094 94 C 53.007812 93.984375 52.75 93.964844 52.476562 93.945312 C 52.203125 93.925781 51.910156 93.90625 51.605469 93.863281 C 50.996094 93.78125 50.3125 93.726562 49.582031 93.582031 C 49.21875 93.515625 48.835938 93.457031 48.445312 93.375 C 48.050781 93.289062 47.648438 93.195312 47.226562 93.101562 C 45.5625 92.6875 43.703125 92.109375 41.761719 91.265625 C 39.820312 90.429688 37.789062 89.332031 35.796875 87.941406 C 33.800781 86.550781 31.84375 84.871094 30.042969 82.917969 C 28.253906 80.957031 26.632812 78.714844 25.269531 76.277344 C 23.914062 73.832031 22.855469 71.171875 22.109375 68.425781 C 20.65625 62.917969 20.597656 57.0625 21.78125 51.847656 C 22.367188 49.238281 23.226562 46.78125 24.28125 44.570312 C 25.320312 42.347656 26.558594 40.375 27.828125 38.65625 C 29.117188 36.945312 30.441406 35.488281 31.695312 34.285156 C 32.949219 33.082031 34.136719 32.132812 35.140625 31.394531 C 35.636719 31.015625 36.105469 30.714844 36.503906 30.4375 C 36.648438 30.34375 36.785156 30.253906 36.917969 30.171875 C 37.011719 30.144531 37.351562 30.054688 37.773438 29.921875 C 38.277344 29.773438 38.878906 29.554688 39.335938 29.320312 C 39.5625 29.203125 39.769531 29.070312 39.957031 28.945312 C 40.144531 28.824219 40.308594 28.703125 40.4375 28.589844 C 40.703125 28.359375 40.839844 28.152344 40.78125 28.027344 C 40.722656 27.902344 40.480469 27.882812 40.128906 27.953125 C 39.957031 27.988281 39.753906 28.046875 39.539062 28.125 C 39.324219 28.203125 39.097656 28.316406 38.863281 28.4375 C 38.394531 28.679688 37.898438 29.125 37.515625 29.492188 C 37.191406 29.816406 36.960938 30.089844 36.902344 30.160156 C 36.773438 30.242188 36.636719 30.328125 36.492188 30.417969 C 36.09375 30.695312 35.621094 30.988281 35.121094 31.363281 C 34.105469 32.09375 32.910156 33.035156 31.640625 34.230469 C 30.375 35.425781 29.03125 36.871094 27.726562 38.578125 C 26.433594 40.292969 25.175781 42.261719 24.105469 44.484375 C 23.027344 46.703125 22.136719 49.164062 21.523438 51.789062 C 20.285156 57.03125 20.289062 62.945312 21.707031 68.53125 C 22.4375 71.316406 23.484375 74.019531 24.835938 76.515625 C 26.195312 79.003906 27.820312 81.292969 29.625 83.304688 C 31.4375 85.304688 33.414062 87.035156 35.429688 88.464844 C 37.449219 89.902344 39.507812 91.039062 41.480469 91.914062 C 43.457031 92.789062 45.347656 93.398438 47.046875 93.835938 C 47.476562 93.9375 47.886719 94.035156 48.289062 94.128906 C 48.6875 94.214844 49.078125 94.277344 49.453125 94.347656 C 50.195312 94.503906 50.894531 94.566406 51.515625 94.65625 C 51.828125 94.703125 52.125 94.726562 52.40625 94.75 C 52.6875 94.769531 52.949219 94.792969 53.191406 94.8125 C 53.679688 94.859375 54.097656 94.859375 54.433594 94.875 C 55.109375 94.894531 55.46875 94.902344 55.46875 94.902344 C 55.46875 94.902344 55.832031 94.894531 56.507812 94.875 C 56.84375 94.859375 57.261719 94.859375 57.75 94.8125 C 57.992188 94.792969 58.253906 94.769531 58.535156 94.75 " fill-opacity="1" fill-rule="nonzero"/><path fill="#ab9746" d="M 73.972656 31.066406 C 73.191406 31.066406 72.773438 31.375 73.003906 31.726562 C 73.238281 32.078125 74.015625 32.375 74.78125 32.410156 C 75.539062 32.449219 76.296875 31.851562 76.296875 31.851562 C 76.296875 31.851562 75.90625 31.652344 75.425781 31.453125 C 74.941406 31.257812 74.351562 31.078125 73.972656 31.066406 " fill-opacity="1" fill-rule="nonzero"/><path fill="#ab9746" d="M 78.335938 33.828125 C 78.097656 33.695312 77.828125 33.566406 77.566406 33.464844 C 77.304688 33.363281 77.058594 33.285156 76.859375 33.261719 C 76.046875 33.171875 75.574219 33.449219 75.773438 33.84375 C 75.824219 33.941406 75.914062 34.039062 76.027344 34.132812 C 76.144531 34.226562 76.28125 34.320312 76.441406 34.398438 C 76.761719 34.5625 77.164062 34.6875 77.554688 34.753906 C 77.949219 34.816406 78.359375 34.710938 78.675781 34.59375 C 78.988281 34.476562 79.199219 34.34375 79.199219 34.34375 C 79.199219 34.34375 79.109375 34.277344 78.953125 34.183594 C 78.792969 34.085938 78.578125 33.960938 78.335938 33.828125 " fill-opacity="1" fill-rule="nonzero"/><path fill="#ab9746" d="M 81.101562 36.652344 C 80.863281 36.488281 80.605469 36.316406 80.34375 36.179688 C 80.082031 36.042969 79.832031 35.933594 79.625 35.882812 C 78.792969 35.6875 78.257812 35.933594 78.425781 36.363281 C 78.589844 36.804688 79.367188 37.296875 80.175781 37.523438 C 80.585938 37.632812 81.023438 37.578125 81.363281 37.496094 C 81.703125 37.410156 81.941406 37.296875 81.941406 37.296875 C 81.941406 37.296875 81.851562 37.21875 81.703125 37.097656 C 81.554688 36.972656 81.339844 36.816406 81.101562 36.652344 " fill-opacity="1" fill-rule="nonzero"/><path fill="#ab9746" d="M 83.652344 39.941406 C 83.1875 39.542969 82.628906 39.101562 82.199219 38.957031 C 81.347656 38.652344 80.78125 38.832031 80.886719 39.3125 C 80.941406 39.550781 81.164062 39.820312 81.46875 40.074219 C 81.765625 40.332031 82.160156 40.566406 82.570312 40.734375 C 83.378906 41.074219 84.445312 40.71875 84.445312 40.71875 C 84.445312 40.71875 84.097656 40.351562 83.652344 39.941406 " fill-opacity="1" fill-rule="nonzero"/><path fill="#ab9746" d="M 85.878906 43.707031 C 85.664062 43.46875 85.429688 43.210938 85.1875 42.996094 C 84.945312 42.78125 84.703125 42.597656 84.496094 42.488281 C 83.652344 42.058594 83.019531 42.183594 83.082031 42.6875 C 83.140625 43.199219 83.835938 43.933594 84.644531 44.390625 C 85.058594 44.617188 85.535156 44.679688 85.925781 44.683594 C 86.3125 44.683594 86.601562 44.628906 86.601562 44.628906 C 86.601562 44.628906 86.523438 44.519531 86.398438 44.347656 C 86.269531 44.179688 86.09375 43.945312 85.878906 43.707031 " fill-opacity="1" fill-rule="nonzero"/><path fill="#ab9746" d="M 86.417969 46.476562 C 85.585938 45.914062 84.925781 45.953125 84.914062 46.492188 C 84.90625 46.761719 85.070312 47.109375 85.316406 47.464844 C 85.441406 47.644531 85.589844 47.824219 85.761719 47.992188 C 85.925781 48.164062 86.109375 48.332031 86.304688 48.480469 C 86.695312 48.773438 87.199219 48.902344 87.601562 48.960938 C 88.003906 49.019531 88.3125 49.003906 88.3125 49.003906 C 88.3125 49.003906 88.066406 48.5 87.6875 47.941406 C 87.324219 47.375 86.820312 46.761719 86.417969 46.476562 " fill-opacity="1" fill-rule="nonzero"/><path fill="#ab9746" d="M 88.71875 52.121094 C 88.628906 51.960938 88.535156 51.800781 88.4375 51.648438 C 88.242188 51.34375 88.054688 51.074219 87.851562 50.898438 C 87.070312 50.195312 86.378906 50.140625 86.28125 50.699219 C 86.195312 51.257812 86.722656 52.234375 87.441406 52.964844 C 87.800781 53.328125 88.3125 53.539062 88.71875 53.660156 C 89.128906 53.78125 89.453125 53.8125 89.453125 53.8125 C 89.453125 53.8125 89.269531 53.253906 88.960938 52.613281 C 88.886719 52.453125 88.804688 52.285156 88.71875 52.121094 " fill-opacity="1" fill-rule="nonzero"/><path fill="#ab9746" d="M 89.824219 58.597656 C 89.777344 58.355469 89.683594 58.023438 89.578125 57.667969 C 89.523438 57.488281 89.464844 57.304688 89.402344 57.121094 C 89.335938 56.9375 89.257812 56.753906 89.179688 56.582031 C 89.023438 56.238281 88.871094 55.929688 88.6875 55.714844 C 87.980469 54.863281 87.265625 54.703125 87.082031 55.269531 C 86.90625 55.832031 87.308594 56.925781 87.941406 57.796875 C 88.101562 58.015625 88.304688 58.199219 88.523438 58.351562 C 88.734375 58.5 88.957031 58.625 89.164062 58.71875 C 89.570312 58.910156 89.90625 58.992188 89.90625 58.992188 C 89.90625 58.992188 89.875 58.84375 89.824219 58.597656 " fill-opacity="1" fill-rule="nonzero"/><path fill="#ab9746" d="M 89.523438 64.027344 C 89.503906 63.765625 89.484375 63.410156 89.425781 63.019531 C 89.292969 62.242188 89.121094 61.347656 88.804688 60.851562 C 88.203125 59.851562 87.488281 59.574219 87.203125 60.132812 C 87.0625 60.410156 87.0625 60.847656 87.160156 61.34375 C 87.242188 61.835938 87.429688 62.386719 87.703125 62.890625 C 88.214844 63.886719 89.546875 64.453125 89.546875 64.453125 C 89.546875 64.453125 89.539062 64.289062 89.523438 64.027344 " fill-opacity="1" fill-rule="nonzero"/><path fill="#ab9746" d="M 87.574219 69.503906 C 87.761719 69.679688 87.933594 69.816406 88.054688 69.910156 C 88.183594 70.003906 88.261719 70.054688 88.261719 70.054688 C 88.261719 70.054688 88.292969 69.886719 88.3125 69.613281 C 88.332031 69.335938 88.359375 68.960938 88.375 68.546875 C 88.398438 68.140625 88.367188 67.6875 88.328125 67.273438 C 88.28125 66.855469 88.226562 66.476562 88.105469 66.195312 C 87.636719 65.058594 86.9375 64.652344 86.554688 65.179688 C 86.191406 65.714844 86.234375 66.980469 86.605469 68.113281 C 86.789062 68.675781 87.207031 69.160156 87.574219 69.503906 " fill-opacity="1" fill-rule="nonzero"/><path fill="#ab9746" d="M 85.816406 70.289062 C 85.550781 70.054688 85.269531 70.035156 85.03125 70.277344 C 84.546875 70.757812 84.375 72.074219 84.558594 73.3125 C 84.582031 73.46875 84.625 73.621094 84.675781 73.769531 C 84.722656 73.914062 84.785156 74.054688 84.851562 74.191406 C 84.984375 74.464844 85.144531 74.714844 85.304688 74.929688 C 85.617188 75.351562 85.914062 75.625 85.914062 75.625 C 85.914062 75.625 85.964844 75.453125 86.050781 75.175781 C 86.125 74.894531 86.242188 74.519531 86.3125 74.089844 C 86.390625 73.660156 86.464844 73.195312 86.5 72.761719 C 86.523438 72.320312 86.511719 71.910156 86.445312 71.597656 C 86.328125 70.976562 86.078125 70.523438 85.816406 70.289062 " fill-opacity="1" fill-rule="nonzero"/><path fill="#ab9746" d="M 82.53125 75.25 C 82.382812 75.351562 82.25 75.511719 82.132812 75.714844 C 82.015625 75.917969 81.894531 76.15625 81.804688 76.429688 C 81.710938 76.703125 81.636719 77.007812 81.589844 77.324219 C 81.527344 77.636719 81.488281 77.960938 81.480469 78.289062 C 81.472656 78.617188 81.53125 78.949219 81.621094 79.261719 C 81.707031 79.566406 81.828125 79.855469 81.949219 80.105469 C 82.191406 80.605469 82.445312 80.945312 82.445312 80.945312 C 82.445312 80.945312 82.53125 80.777344 82.671875 80.507812 C 82.816406 80.242188 82.980469 79.855469 83.148438 79.429688 C 83.5 78.59375 83.765625 77.546875 83.761719 76.890625 C 83.703125 75.53125 83.117188 74.847656 82.53125 75.25 " fill-opacity="1" fill-rule="nonzero"/><path fill="#ab9746" d="M 79.019531 79.894531 C 78.671875 80.039062 78.351562 80.453125 78.042969 80.964844 C 77.894531 81.226562 77.761719 81.523438 77.648438 81.84375 C 77.527344 82.152344 77.421875 82.480469 77.347656 82.816406 C 77.273438 83.152344 77.273438 83.507812 77.304688 83.847656 C 77.332031 84.179688 77.398438 84.5 77.472656 84.785156 C 77.625 85.347656 77.820312 85.75 77.820312 85.75 C 77.820312 85.75 77.941406 85.59375 78.140625 85.34375 C 78.238281 85.214844 78.359375 85.074219 78.472656 84.898438 C 78.59375 84.722656 78.71875 84.53125 78.847656 84.328125 C 78.972656 84.128906 79.105469 83.914062 79.230469 83.699219 C 79.355469 83.488281 79.460938 83.253906 79.5625 83.035156 C 79.761719 82.59375 79.925781 82.175781 79.976562 81.828125 C 80.179688 80.414062 79.707031 79.601562 79.019531 79.894531 " fill-opacity="1" fill-rule="nonzero"/><path fill="#ab9746" d="M 72.1875 86.621094 C 72.117188 86.789062 72.0625 86.964844 72.019531 87.140625 C 71.976562 87.3125 71.945312 87.488281 71.925781 87.664062 C 71.886719 88.011719 71.886719 88.363281 71.90625 88.671875 C 71.945312 89.289062 72.0625 89.746094 72.0625 89.746094 C 72.0625 89.746094 72.21875 89.609375 72.476562 89.390625 C 72.726562 89.164062 73.074219 88.871094 73.417969 88.496094 C 73.589844 88.3125 73.765625 88.121094 73.9375 87.925781 C 74.113281 87.730469 74.28125 87.527344 74.425781 87.316406 C 74.71875 86.898438 74.964844 86.496094 75.09375 86.152344 C 75.585938 84.738281 75.257812 83.800781 74.496094 83.960938 C 74.308594 84.003906 74.105469 84.109375 73.902344 84.269531 C 73.699219 84.425781 73.480469 84.621094 73.277344 84.863281 C 73.070312 85.097656 72.882812 85.390625 72.691406 85.675781 C 72.503906 85.96875 72.332031 86.289062 72.1875 86.621094 " fill-opacity="1" fill-rule="nonzero"/><path fill="#ab9746" d="M 65.40625 92.507812 C 65.496094 92.464844 65.625 92.40625 65.773438 92.3125 C 66.082031 92.136719 66.496094 91.890625 66.9375 91.605469 C 67.378906 91.3125 67.832031 90.953125 68.230469 90.613281 C 68.632812 90.265625 68.960938 89.878906 69.167969 89.558594 C 69.585938 88.910156 69.742188 88.292969 69.707031 87.863281 C 69.667969 87.4375 69.433594 87.175781 69.023438 87.179688 C 68.925781 87.183594 68.816406 87.199219 68.703125 87.234375 C 68.589844 87.261719 68.46875 87.304688 68.347656 87.359375 C 68.101562 87.46875 67.84375 87.628906 67.589844 87.835938 C 67.460938 87.941406 67.332031 88.050781 67.199219 88.164062 C 67.066406 88.277344 66.9375 88.402344 66.808594 88.535156 C 66.554688 88.792969 66.316406 89.105469 66.089844 89.398438 C 65.648438 90 65.449219 90.796875 65.351562 91.449219 C 65.253906 92.085938 65.269531 92.574219 65.269531 92.574219 C 65.269531 92.574219 65.316406 92.550781 65.40625 92.507812 " fill-opacity="1" fill-rule="nonzero"/><path fill="#ab9746" d="M 58.847656 93.5625 C 59.078125 93.488281 59.328125 93.390625 59.585938 93.292969 C 60.105469 93.089844 60.65625 92.867188 61.144531 92.578125 C 61.628906 92.296875 62.0625 92.03125 62.34375 91.722656 C 63.480469 90.535156 63.566406 89.445312 62.734375 89.246094 C 62.527344 89.195312 62.277344 89.207031 62.003906 89.269531 C 61.867188 89.300781 61.722656 89.347656 61.578125 89.402344 C 61.429688 89.453125 61.277344 89.511719 61.121094 89.582031 C 60.808594 89.722656 60.488281 89.90625 60.167969 90.128906 C 59.847656 90.328125 59.53125 90.566406 59.234375 90.828125 C 58.644531 91.371094 58.25 92.109375 58 92.75 C 57.75 93.386719 57.648438 93.898438 57.648438 93.898438 C 57.648438 93.898438 57.871094 93.839844 58.230469 93.742188 C 58.40625 93.691406 58.617188 93.628906 58.847656 93.5625 " fill-opacity="1" fill-rule="nonzero"/><path fill="#ab9746" d="M 75.828125 30.882812 C 76.175781 31.292969 76.480469 31.605469 76.480469 31.605469 C 76.480469 31.605469 76.84375 30.71875 76.519531 29.964844 C 76.191406 29.21875 75.523438 28.53125 75.0625 28.460938 C 74.605469 28.378906 74.550781 28.914062 74.902344 29.632812 C 75.074219 30 75.480469 30.480469 75.828125 30.882812 " fill-opacity="1" fill-rule="nonzero"/><path fill="#ab9746" d="M 78.355469 32.53125 C 78.507812 32.777344 78.679688 33.027344 78.839844 33.261719 C 78.996094 33.496094 79.148438 33.703125 79.257812 33.851562 C 79.371094 33.996094 79.4375 34.09375 79.4375 34.09375 C 79.4375 34.09375 79.5625 33.867188 79.648438 33.542969 C 79.738281 33.21875 79.792969 32.792969 79.664062 32.378906 C 79.539062 31.964844 79.316406 31.566406 79.066406 31.25 C 78.941406 31.089844 78.8125 30.949219 78.683594 30.84375 C 78.550781 30.742188 78.421875 30.667969 78.304688 30.636719 C 77.832031 30.5 77.71875 31.050781 78.007812 31.84375 C 78.078125 32.046875 78.203125 32.285156 78.355469 32.53125 " fill-opacity="1" fill-rule="nonzero"/><path fill="#ab9746" d="M 81.296875 35.28125 C 81.425781 35.554688 81.570312 35.847656 81.710938 36.105469 C 82 36.621094 82.238281 37.046875 82.238281 37.046875 C 82.238281 37.046875 82.390625 36.832031 82.523438 36.5 C 82.660156 36.167969 82.773438 35.722656 82.679688 35.28125 C 82.515625 34.386719 81.9375 33.488281 81.460938 33.289062 C 80.976562 33.097656 80.804688 33.652344 81.007812 34.523438 C 81.058594 34.742188 81.164062 35.007812 81.296875 35.28125 " fill-opacity="1" fill-rule="nonzero"/><path fill="#ab9746" d="M 84.371094 39.433594 C 84.59375 40.023438 84.804688 40.488281 84.804688 40.488281 C 84.804688 40.488281 85.554688 39.660156 85.488281 38.695312 C 85.453125 38.21875 85.3125 37.730469 85.128906 37.316406 C 84.933594 36.910156 84.691406 36.59375 84.453125 36.457031 C 83.980469 36.1875 83.71875 36.761719 83.828125 37.695312 C 83.894531 38.15625 84.136719 38.859375 84.371094 39.433594 " fill-opacity="1" fill-rule="nonzero"/><path fill="#ab9746" d="M 86.71875 43.265625 C 86.800781 43.585938 86.878906 43.875 86.933594 44.085938 C 86.992188 44.292969 87.027344 44.425781 87.027344 44.425781 C 87.027344 44.425781 87.25 44.234375 87.484375 43.914062 C 87.714844 43.597656 87.964844 43.144531 87.984375 42.644531 C 88.039062 41.636719 87.660156 40.503906 87.191406 40.160156 C 86.71875 39.820312 86.390625 40.378906 86.382812 41.371094 C 86.378906 41.621094 86.421875 41.933594 86.492188 42.265625 C 86.558594 42.597656 86.632812 42.949219 86.71875 43.265625 " fill-opacity="1" fill-rule="nonzero"/><path fill="#ab9746" d="M 88.804688 48.84375 C 88.804688 48.84375 89.066406 48.679688 89.355469 48.378906 C 89.648438 48.078125 89.957031 47.648438 90.054688 47.125 C 90.101562 46.863281 90.128906 46.585938 90.128906 46.316406 C 90.125 46.046875 90.097656 45.78125 90.050781 45.535156 C 89.96875 45.035156 89.789062 44.625 89.570312 44.414062 C 89.128906 43.988281 88.691406 44.53125 88.5625 45.5625 C 88.480469 46.085938 88.578125 46.898438 88.644531 47.59375 C 88.734375 48.28125 88.804688 48.84375 88.804688 48.84375 " fill-opacity="1" fill-rule="nonzero"/><path fill="#ab9746" d="M 90.058594 51.820312 C 90.046875 52.015625 90.039062 52.207031 90.035156 52.390625 C 90.023438 53.117188 90.011719 53.71875 90.011719 53.71875 C 90.011719 53.71875 90.308594 53.585938 90.65625 53.316406 C 91.007812 53.046875 91.390625 52.644531 91.570312 52.109375 C 91.9375 51.042969 91.855469 49.710938 91.457031 49.203125 C 91.066406 48.691406 90.53125 49.199219 90.238281 50.257812 C 90.171875 50.523438 90.113281 50.875 90.089844 51.25 C 90.074219 51.4375 90.066406 51.628906 90.058594 51.820312 " fill-opacity="1" fill-rule="nonzero"/><path fill="#ab9746" d="M 90.984375 56.421875 C 90.9375 56.613281 90.902344 56.816406 90.863281 57.015625 C 90.824219 57.210938 90.785156 57.410156 90.75 57.601562 C 90.625 58.359375 90.523438 58.984375 90.523438 58.984375 C 90.523438 58.984375 90.851562 58.890625 91.253906 58.664062 C 91.453125 58.550781 91.675781 58.40625 91.878906 58.222656 C 92.074219 58.039062 92.257812 57.816406 92.390625 57.550781 C 92.945312 56.496094 93.058594 55.089844 92.722656 54.5 C 92.390625 53.902344 91.753906 54.351562 91.292969 55.414062 C 91.179688 55.675781 91.066406 56.035156 90.984375 56.421875 " fill-opacity="1" fill-rule="nonzero"/><g clip-path="url(#faa911725a)"><path fill="#ab9746" d="M 93.214844 60.226562 C 92.964844 59.550781 92.234375 59.917969 91.582031 60.949219 C 91.277344 61.46875 90.917969 62.375 90.679688 63.144531 C 90.550781 63.527344 90.421875 63.878906 90.34375 64.132812 C 90.261719 64.386719 90.214844 64.542969 90.214844 64.542969 C 90.214844 64.542969 91.648438 64.378906 92.398438 63.359375 C 92.75 62.851562 93.027344 62.238281 93.183594 61.664062 C 93.328125 61.089844 93.339844 60.5625 93.214844 60.226562 " fill-opacity="1" fill-rule="nonzero"/></g><path fill="#ab9746" d="M 90.996094 66.773438 C 90.792969 67.015625 90.542969 67.355469 90.324219 67.734375 C 90.09375 68.113281 89.894531 68.527344 89.675781 68.902344 C 89.46875 69.273438 89.292969 69.621094 89.164062 69.871094 C 89.042969 70.121094 88.957031 70.277344 88.957031 70.277344 C 88.957031 70.277344 89.050781 70.28125 89.210938 70.273438 C 89.371094 70.269531 89.589844 70.25 89.835938 70.203125 C 90.332031 70.105469 90.945312 69.886719 91.417969 69.421875 C 92.355469 68.492188 92.980469 67.039062 92.808594 66.289062 C 92.65625 65.542969 91.835938 65.804688 90.996094 66.773438 " fill-opacity="1" fill-rule="nonzero"/><path fill="#ab9746" d="M 90.738281 72.019531 C 90.382812 72.058594 89.910156 72.308594 89.367188 72.730469 C 89.097656 72.941406 88.800781 73.257812 88.507812 73.613281 C 88.199219 73.960938 87.890625 74.34375 87.617188 74.699219 C 87.351562 75.058594 87.085938 75.375 86.90625 75.609375 C 86.726562 75.847656 86.613281 75.992188 86.613281 75.992188 C 86.613281 75.992188 87.003906 76.082031 87.539062 76.078125 C 87.808594 76.074219 88.113281 76.046875 88.421875 75.96875 C 88.578125 75.929688 88.734375 75.878906 88.890625 75.8125 C 89.042969 75.746094 89.1875 75.664062 89.328125 75.5625 C 89.609375 75.359375 89.882812 75.125 90.132812 74.871094 C 90.253906 74.742188 90.375 74.609375 90.488281 74.476562 C 90.589844 74.339844 90.6875 74.203125 90.777344 74.0625 C 91.132812 73.507812 91.367188 72.960938 91.34375 72.554688 C 91.324219 72.148438 91.09375 71.976562 90.738281 72.019531 " fill-opacity="1" fill-rule="nonzero"/><path fill="#ab9746" d="M 86.59375 78.621094 C 85.945312 78.949219 85.125 79.710938 84.398438 80.328125 C 84.042969 80.640625 83.734375 80.9375 83.492188 81.136719 C 83.261719 81.34375 83.117188 81.472656 83.117188 81.472656 C 83.117188 81.472656 83.5 81.644531 84.058594 81.742188 C 84.335938 81.789062 84.660156 81.820312 85 81.800781 C 85.332031 81.777344 85.675781 81.703125 86.007812 81.546875 C 86.34375 81.394531 86.671875 81.203125 86.980469 80.988281 C 87.277344 80.765625 87.554688 80.519531 87.796875 80.265625 C 88.039062 80.011719 88.25 79.757812 88.394531 79.503906 C 88.539062 79.25 88.636719 79.011719 88.667969 78.800781 C 88.789062 77.957031 87.835938 77.929688 86.59375 78.621094 " fill-opacity="1" fill-rule="nonzero"/><path fill="#ab9746" d="M 82.582031 84.191406 C 82.226562 84.304688 81.78125 84.507812 81.332031 84.753906 C 81.105469 84.875 80.882812 85.011719 80.648438 85.140625 C 80.417969 85.265625 80.191406 85.394531 79.976562 85.523438 C 79.761719 85.648438 79.558594 85.773438 79.375 85.886719 C 79.191406 86.003906 79.015625 86.09375 78.875 86.179688 C 78.59375 86.347656 78.417969 86.449219 78.417969 86.449219 C 78.417969 86.453125 78.785156 86.703125 79.339844 86.917969 C 79.617188 87.023438 79.945312 87.121094 80.300781 87.167969 C 80.648438 87.210938 81.019531 87.199219 81.398438 87.109375 C 81.773438 87.015625 82.152344 86.882812 82.515625 86.71875 C 82.867188 86.546875 83.203125 86.347656 83.507812 86.132812 C 84.117188 85.714844 84.542969 85.203125 84.695312 84.785156 C 84.992188 83.933594 84.007812 83.71875 82.582031 84.191406 " fill-opacity="1" fill-rule="nonzero"/><path fill="#ab9746" d="M 77.316406 89.148438 C 76.914062 89.1875 76.417969 89.3125 75.90625 89.476562 C 75.648438 89.5625 75.382812 89.640625 75.117188 89.726562 C 74.851562 89.808594 74.589844 89.898438 74.34375 89.984375 C 73.855469 90.171875 73.394531 90.308594 73.066406 90.425781 C 72.742188 90.542969 72.542969 90.613281 72.542969 90.613281 C 72.542969 90.613281 72.863281 90.953125 73.390625 91.289062 C 73.65625 91.457031 73.972656 91.621094 74.324219 91.746094 C 74.503906 91.804688 74.691406 91.855469 74.886719 91.890625 C 75.078125 91.921875 75.277344 91.929688 75.480469 91.921875 C 75.882812 91.902344 76.304688 91.839844 76.714844 91.746094 C 77.125 91.65625 77.507812 91.503906 77.863281 91.347656 C 78.21875 91.183594 78.546875 91.011719 78.800781 90.8125 C 79.058594 90.609375 79.257812 90.398438 79.375 90.195312 C 79.859375 89.371094 78.882812 88.953125 77.316406 89.148438 " fill-opacity="1" fill-rule="nonzero"/><path fill="#ab9746" d="M 72.644531 93.6875 C 72.292969 93.414062 71.65625 93.246094 70.8125 93.148438 C 70.390625 93.097656 69.863281 93.144531 69.292969 93.183594 C 68.71875 93.21875 68.121094 93.300781 67.570312 93.367188 C 67.015625 93.417969 66.519531 93.484375 66.160156 93.53125 C 65.980469 93.5625 65.832031 93.570312 65.730469 93.582031 C 65.628906 93.59375 65.570312 93.601562 65.570312 93.601562 C 65.570312 93.601562 65.828125 94.023438 66.296875 94.496094 C 66.761719 94.953125 67.449219 95.453125 68.308594 95.609375 C 68.738281 95.695312 69.175781 95.703125 69.621094 95.695312 C 69.839844 95.6875 70.0625 95.671875 70.277344 95.652344 C 70.382812 95.640625 70.492188 95.625 70.597656 95.609375 C 70.699219 95.589844 70.804688 95.570312 70.902344 95.546875 C 71.304688 95.453125 71.675781 95.328125 71.988281 95.1875 C 72.144531 95.113281 72.289062 95.039062 72.410156 94.953125 C 72.535156 94.867188 72.636719 94.773438 72.722656 94.679688 C 73.058594 94.304688 73 93.953125 72.644531 93.6875 " fill-opacity="1" fill-rule="nonzero"/><g clip-path="url(#d0a4b19e1d)"><path fill="#ab9746" d="M 63.214844 95.8125 C 62.796875 95.691406 62.234375 95.5625 61.640625 95.488281 C 61.046875 95.417969 60.40625 95.328125 59.828125 95.269531 C 59.535156 95.238281 59.261719 95.21875 59.007812 95.1875 C 58.757812 95.15625 58.53125 95.128906 58.335938 95.105469 C 57.957031 95.066406 57.71875 95.042969 57.71875 95.042969 C 57.71875 95.042969 57.882812 95.535156 58.253906 96.125 C 58.625 96.707031 59.214844 97.414062 60.058594 97.746094 C 60.480469 97.917969 60.933594 98.058594 61.394531 98.160156 C 61.851562 98.238281 62.3125 98.28125 62.75 98.289062 C 62.96875 98.292969 63.183594 98.285156 63.386719 98.273438 C 63.585938 98.246094 63.777344 98.214844 63.957031 98.171875 C 64.3125 98.089844 64.613281 97.972656 64.828125 97.824219 C 65.707031 97.21875 64.898438 96.347656 63.214844 95.8125 " fill-opacity="1" fill-rule="nonzero"/></g><path fill="#ab9746" d="M 36.160156 32.410156 C 36.921875 32.375 37.703125 32.078125 37.9375 31.726562 C 38.164062 31.375 37.75 31.066406 36.96875 31.066406 C 36.589844 31.078125 36 31.257812 35.515625 31.453125 C 35.035156 31.652344 34.644531 31.851562 34.644531 31.851562 C 34.644531 31.851562 35.402344 32.449219 36.160156 32.410156 " fill-opacity="1" fill-rule="nonzero"/><path fill="#ab9746" d="M 34.910156 34.132812 C 35.027344 34.039062 35.117188 33.941406 35.164062 33.84375 C 35.367188 33.449219 34.894531 33.171875 34.082031 33.261719 C 33.882812 33.285156 33.632812 33.363281 33.375 33.464844 C 33.113281 33.566406 32.84375 33.695312 32.605469 33.828125 C 32.363281 33.960938 32.144531 34.085938 31.988281 34.183594 C 31.832031 34.277344 31.738281 34.34375 31.738281 34.34375 C 31.738281 34.34375 31.953125 34.476562 32.265625 34.59375 C 32.582031 34.710938 32.992188 34.816406 33.386719 34.753906 C 33.777344 34.6875 34.179688 34.5625 34.496094 34.398438 C 34.65625 34.320312 34.796875 34.226562 34.910156 34.132812 " fill-opacity="1" fill-rule="nonzero"/><path fill="#ab9746" d="M 30.765625 37.523438 C 31.574219 37.296875 32.351562 36.804688 32.511719 36.363281 C 32.683594 35.933594 32.148438 35.6875 31.316406 35.882812 C 31.109375 35.933594 30.859375 36.042969 30.597656 36.179688 C 30.335938 36.316406 30.078125 36.488281 29.839844 36.652344 C 29.597656 36.816406 29.382812 36.972656 29.238281 37.097656 C 29.089844 37.21875 28.996094 37.296875 28.996094 37.296875 C 28.996094 37.296875 29.238281 37.410156 29.578125 37.496094 C 29.917969 37.578125 30.355469 37.632812 30.765625 37.523438 " fill-opacity="1" fill-rule="nonzero"/><path fill="#ab9746" d="M 30.050781 39.3125 C 30.160156 38.832031 29.59375 38.652344 28.742188 38.957031 C 28.3125 39.101562 27.753906 39.542969 27.289062 39.941406 C 26.84375 40.351562 26.496094 40.71875 26.496094 40.71875 C 26.496094 40.71875 27.5625 41.074219 28.371094 40.734375 C 28.78125 40.566406 29.175781 40.332031 29.472656 40.074219 C 29.777344 39.820312 29.996094 39.550781 30.050781 39.3125 " fill-opacity="1" fill-rule="nonzero"/><path fill="#ab9746" d="M 27.859375 42.6875 C 27.921875 42.183594 27.289062 42.058594 26.445312 42.488281 C 26.238281 42.597656 25.996094 42.78125 25.75 42.996094 C 25.511719 43.210938 25.277344 43.46875 25.0625 43.707031 C 24.847656 43.945312 24.671875 44.179688 24.542969 44.347656 C 24.417969 44.519531 24.335938 44.628906 24.335938 44.628906 C 24.335938 44.628906 24.628906 44.683594 25.015625 44.683594 C 25.40625 44.679688 25.882812 44.617188 26.296875 44.390625 C 27.105469 43.933594 27.800781 43.199219 27.859375 42.6875 " fill-opacity="1" fill-rule="nonzero"/><path fill="#ab9746" d="M 24.636719 48.480469 C 24.832031 48.332031 25.011719 48.164062 25.179688 47.992188 C 25.351562 47.824219 25.5 47.644531 25.625 47.464844 C 25.871094 47.109375 26.035156 46.761719 26.027344 46.492188 C 26.015625 45.953125 25.355469 45.914062 24.523438 46.476562 C 24.121094 46.761719 23.613281 47.375 23.253906 47.941406 C 22.875 48.5 22.628906 49.003906 22.628906 49.003906 C 22.628906 49.003906 22.9375 49.019531 23.339844 48.960938 C 23.742188 48.902344 24.246094 48.773438 24.636719 48.480469 " fill-opacity="1" fill-rule="nonzero"/><path fill="#ab9746" d="M 22.222656 52.121094 C 22.136719 52.285156 22.058594 52.453125 21.980469 52.613281 C 21.671875 53.253906 21.488281 53.8125 21.488281 53.8125 C 21.488281 53.8125 21.8125 53.78125 22.222656 53.660156 C 22.628906 53.539062 23.140625 53.328125 23.5 52.964844 C 24.214844 52.234375 24.746094 51.257812 24.65625 50.699219 C 24.5625 50.140625 23.871094 50.195312 23.089844 50.898438 C 22.886719 51.074219 22.699219 51.34375 22.503906 51.648438 C 22.40625 51.800781 22.3125 51.960938 22.222656 52.121094 " fill-opacity="1" fill-rule="nonzero"/><path fill="#ab9746" d="M 21.117188 58.597656 C 21.066406 58.84375 21.035156 58.992188 21.035156 58.992188 C 21.035156 58.992188 21.371094 58.910156 21.78125 58.71875 C 21.984375 58.625 22.207031 58.5 22.417969 58.351562 C 22.636719 58.199219 22.839844 58.015625 23 57.796875 C 23.632812 56.925781 24.035156 55.832031 23.859375 55.269531 C 23.675781 54.703125 22.960938 54.863281 22.253906 55.714844 C 22.070312 55.929688 21.914062 56.238281 21.757812 56.582031 C 21.683594 56.753906 21.605469 56.9375 21.539062 57.121094 C 21.476562 57.304688 21.417969 57.488281 21.363281 57.667969 C 21.257812 58.023438 21.164062 58.355469 21.117188 58.597656 " fill-opacity="1" fill-rule="nonzero"/><path fill="#ab9746" d="M 23.238281 62.890625 C 23.511719 62.386719 23.699219 61.835938 23.78125 61.34375 C 23.878906 60.847656 23.878906 60.410156 23.734375 60.132812 C 23.453125 59.574219 22.738281 59.851562 22.136719 60.851562 C 21.820312 61.347656 21.648438 62.242188 21.511719 63.019531 C 21.457031 63.410156 21.4375 63.765625 21.417969 64.027344 C 21.402344 64.289062 21.394531 64.453125 21.394531 64.453125 C 21.394531 64.453125 22.726562 63.886719 23.238281 62.890625 " fill-opacity="1" fill-rule="nonzero"/><path fill="#ab9746" d="M 22.628906 69.613281 C 22.648438 69.886719 22.679688 70.054688 22.679688 70.054688 C 22.679688 70.054688 22.757812 70.003906 22.882812 69.910156 C 23.007812 69.816406 23.179688 69.679688 23.367188 69.503906 C 23.734375 69.160156 24.152344 68.675781 24.335938 68.113281 C 24.707031 66.980469 24.75 65.714844 24.382812 65.179688 C 24.003906 64.652344 23.304688 65.058594 22.835938 66.195312 C 22.714844 66.476562 22.660156 66.855469 22.613281 67.273438 C 22.574219 67.6875 22.542969 68.140625 22.566406 68.546875 C 22.582031 68.960938 22.605469 69.335938 22.628906 69.613281 " fill-opacity="1" fill-rule="nonzero"/><path fill="#ab9746" d="M 24.628906 74.089844 C 24.699219 74.519531 24.816406 74.894531 24.890625 75.175781 C 24.972656 75.453125 25.023438 75.625 25.023438 75.625 C 25.023438 75.625 25.320312 75.351562 25.636719 74.929688 C 25.796875 74.714844 25.957031 74.464844 26.089844 74.191406 C 26.15625 74.054688 26.214844 73.914062 26.265625 73.769531 C 26.3125 73.621094 26.359375 73.46875 26.382812 73.3125 C 26.5625 72.074219 26.394531 70.757812 25.910156 70.277344 C 25.671875 70.035156 25.386719 70.054688 25.125 70.289062 C 24.863281 70.523438 24.613281 70.976562 24.492188 71.597656 C 24.429688 71.910156 24.417969 72.320312 24.4375 72.761719 C 24.476562 73.195312 24.550781 73.660156 24.628906 74.089844 " fill-opacity="1" fill-rule="nonzero"/><path fill="#ab9746" d="M 28.265625 80.507812 C 28.40625 80.777344 28.496094 80.945312 28.496094 80.945312 C 28.496094 80.945312 28.75 80.605469 28.992188 80.105469 C 29.113281 79.855469 29.234375 79.566406 29.320312 79.261719 C 29.410156 78.949219 29.46875 78.617188 29.460938 78.289062 C 29.453125 77.960938 29.414062 77.636719 29.351562 77.324219 C 29.304688 77.007812 29.230469 76.703125 29.136719 76.429688 C 29.046875 76.15625 28.925781 75.917969 28.808594 75.714844 C 28.691406 75.511719 28.558594 75.351562 28.410156 75.25 C 27.824219 74.847656 27.238281 75.53125 27.175781 76.890625 C 27.171875 77.546875 27.441406 78.59375 27.792969 79.429688 C 27.960938 79.855469 28.125 80.242188 28.265625 80.507812 " fill-opacity="1" fill-rule="nonzero"/><path fill="#ab9746" d="M 31.375 83.035156 C 31.480469 83.253906 31.582031 83.488281 31.710938 83.699219 C 31.835938 83.914062 31.964844 84.128906 32.09375 84.328125 C 32.222656 84.53125 32.351562 84.722656 32.46875 84.898438 C 32.582031 85.074219 32.703125 85.214844 32.800781 85.34375 C 32.996094 85.59375 33.121094 85.75 33.121094 85.75 C 33.121094 85.75 33.316406 85.347656 33.46875 84.785156 C 33.542969 84.5 33.609375 84.179688 33.636719 83.847656 C 33.667969 83.507812 33.664062 83.152344 33.59375 82.816406 C 33.519531 82.480469 33.414062 82.152344 33.292969 81.84375 C 33.179688 81.523438 33.046875 81.226562 32.898438 80.964844 C 32.589844 80.453125 32.269531 80.039062 31.921875 79.894531 C 31.234375 79.601562 30.761719 80.414062 30.964844 81.828125 C 31.015625 82.175781 31.179688 82.59375 31.375 83.035156 " fill-opacity="1" fill-rule="nonzero"/><path fill="#ab9746" d="M 36.515625 87.316406 C 36.660156 87.527344 36.828125 87.730469 37.003906 87.925781 C 37.175781 88.121094 37.351562 88.3125 37.523438 88.496094 C 37.867188 88.871094 38.214844 89.164062 38.464844 89.390625 C 38.71875 89.609375 38.878906 89.746094 38.878906 89.746094 C 38.878906 89.746094 38.996094 89.289062 39.035156 88.671875 C 39.054688 88.363281 39.054688 88.011719 39.015625 87.664062 C 38.996094 87.488281 38.964844 87.3125 38.921875 87.140625 C 38.878906 86.964844 38.824219 86.789062 38.753906 86.621094 C 38.609375 86.289062 38.4375 85.96875 38.25 85.675781 C 38.054688 85.390625 37.871094 85.097656 37.664062 84.863281 C 37.460938 84.621094 37.242188 84.425781 37.039062 84.269531 C 36.835938 84.109375 36.632812 84.003906 36.441406 83.960938 C 35.679688 83.800781 35.351562 84.738281 35.84375 86.152344 C 35.976562 86.496094 36.222656 86.898438 36.515625 87.316406 " fill-opacity="1" fill-rule="nonzero"/><path fill="#ab9746" d="M 42.707031 90.613281 C 43.109375 90.953125 43.5625 91.3125 44.003906 91.605469 C 44.441406 91.890625 44.859375 92.136719 45.167969 92.3125 C 45.316406 92.40625 45.449219 92.464844 45.535156 92.507812 C 45.625 92.550781 45.671875 92.574219 45.671875 92.574219 C 45.671875 92.574219 45.6875 92.085938 45.589844 91.449219 C 45.492188 90.796875 45.292969 90 44.847656 89.398438 C 44.625 89.105469 44.386719 88.792969 44.132812 88.535156 C 44.003906 88.402344 43.875 88.277344 43.742188 88.164062 C 43.609375 88.050781 43.480469 87.941406 43.351562 87.835938 C 43.09375 87.628906 42.839844 87.46875 42.59375 87.359375 C 42.46875 87.304688 42.351562 87.261719 42.238281 87.234375 C 42.125 87.199219 42.019531 87.183594 41.914062 87.179688 C 41.507812 87.175781 41.273438 87.4375 41.234375 87.863281 C 41.199219 88.292969 41.355469 88.910156 41.773438 89.558594 C 41.980469 89.878906 42.308594 90.265625 42.707031 90.613281 " fill-opacity="1" fill-rule="nonzero"/><path fill="#ab9746" d="M 49.796875 92.578125 C 50.285156 92.867188 50.835938 93.089844 51.351562 93.292969 C 51.613281 93.390625 51.863281 93.488281 52.09375 93.5625 C 52.324219 93.628906 52.535156 93.691406 52.710938 93.742188 C 53.070312 93.839844 53.292969 93.898438 53.292969 93.898438 C 53.292969 93.898438 53.191406 93.386719 52.941406 92.75 C 52.691406 92.109375 52.296875 91.371094 51.707031 90.828125 C 51.410156 90.566406 51.09375 90.328125 50.773438 90.128906 C 50.453125 89.90625 50.132812 89.722656 49.820312 89.582031 C 49.664062 89.511719 49.511719 89.453125 49.363281 89.402344 C 49.214844 89.347656 49.074219 89.300781 48.9375 89.269531 C 48.664062 89.207031 48.414062 89.195312 48.207031 89.246094 C 47.375 89.445312 47.460938 90.535156 48.597656 91.722656 C 48.878906 92.03125 49.3125 92.296875 49.796875 92.578125 " fill-opacity="1" fill-rule="nonzero"/><path fill="#ab9746" d="M 35.109375 30.882812 C 35.460938 30.480469 35.867188 30 36.039062 29.632812 C 36.390625 28.914062 36.335938 28.378906 35.878906 28.460938 C 35.417969 28.53125 34.75 29.21875 34.421875 29.964844 C 34.09375 30.71875 34.460938 31.605469 34.460938 31.605469 C 34.460938 31.605469 34.765625 31.292969 35.109375 30.882812 " fill-opacity="1" fill-rule="nonzero"/><path fill="#ab9746" d="M 31.503906 34.09375 C 31.503906 34.09375 31.570312 33.996094 31.683594 33.851562 C 31.792969 33.703125 31.945312 33.496094 32.101562 33.261719 C 32.261719 33.027344 32.433594 32.777344 32.585938 32.53125 C 32.734375 32.285156 32.863281 32.046875 32.933594 31.84375 C 33.222656 31.050781 33.109375 30.5 32.636719 30.636719 C 32.515625 30.667969 32.386719 30.742188 32.257812 30.84375 C 32.128906 30.949219 32 31.089844 31.875 31.25 C 31.625 31.566406 31.398438 31.964844 31.277344 32.378906 C 31.148438 32.792969 31.203125 33.21875 31.292969 33.542969 C 31.378906 33.867188 31.503906 34.09375 31.503906 34.09375 " fill-opacity="1" fill-rule="nonzero"/><path fill="#ab9746" d="M 28.703125 37.046875 C 28.703125 37.046875 28.941406 36.621094 29.230469 36.105469 C 29.371094 35.847656 29.511719 35.554688 29.644531 35.28125 C 29.777344 35.007812 29.882812 34.742188 29.933594 34.523438 C 30.136719 33.652344 29.964844 33.097656 29.476562 33.289062 C 29 33.488281 28.425781 34.386719 28.257812 35.28125 C 28.167969 35.722656 28.28125 36.167969 28.414062 36.5 C 28.550781 36.832031 28.703125 37.046875 28.703125 37.046875 " fill-opacity="1" fill-rule="nonzero"/><path fill="#ab9746" d="M 26.566406 39.433594 C 26.804688 38.859375 27.046875 38.15625 27.113281 37.695312 C 27.222656 36.761719 26.960938 36.1875 26.488281 36.457031 C 26.25 36.59375 26.003906 36.910156 25.8125 37.316406 C 25.628906 37.730469 25.488281 38.21875 25.449219 38.695312 C 25.386719 39.660156 26.136719 40.488281 26.136719 40.488281 C 26.136719 40.488281 26.347656 40.023438 26.566406 39.433594 " fill-opacity="1" fill-rule="nonzero"/><path fill="#ab9746" d="M 23.457031 43.914062 C 23.691406 44.234375 23.914062 44.425781 23.914062 44.425781 C 23.914062 44.425781 23.949219 44.292969 24.007812 44.085938 C 24.0625 43.875 24.140625 43.585938 24.222656 43.265625 C 24.304688 42.949219 24.382812 42.597656 24.449219 42.265625 C 24.519531 41.933594 24.5625 41.621094 24.558594 41.371094 C 24.550781 40.378906 24.21875 39.820312 23.746094 40.160156 C 23.277344 40.503906 22.902344 41.636719 22.957031 42.644531 C 22.976562 43.144531 23.226562 43.597656 23.457031 43.914062 " fill-opacity="1" fill-rule="nonzero"/><path fill="#ab9746" d="M 21.585938 48.378906 C 21.875 48.679688 22.136719 48.84375 22.136719 48.84375 C 22.136719 48.84375 22.207031 48.28125 22.292969 47.59375 C 22.363281 46.898438 22.460938 46.085938 22.378906 45.5625 C 22.246094 44.53125 21.8125 43.988281 21.371094 44.414062 C 21.152344 44.625 20.972656 45.035156 20.886719 45.535156 C 20.84375 45.78125 20.816406 46.046875 20.8125 46.316406 C 20.8125 46.585938 20.839844 46.863281 20.886719 47.125 C 20.980469 47.648438 21.292969 48.078125 21.585938 48.378906 " fill-opacity="1" fill-rule="nonzero"/><path fill="#ab9746" d="M 20.285156 53.316406 C 20.632812 53.585938 20.929688 53.71875 20.929688 53.71875 C 20.929688 53.71875 20.917969 53.117188 20.910156 52.390625 C 20.902344 52.207031 20.894531 52.015625 20.882812 51.820312 C 20.878906 51.628906 20.867188 51.4375 20.851562 51.25 C 20.828125 50.875 20.769531 50.523438 20.703125 50.257812 C 20.410156 49.199219 19.875 48.691406 19.480469 49.203125 C 19.082031 49.710938 19.003906 51.042969 19.371094 52.109375 C 19.550781 52.644531 19.933594 53.046875 20.285156 53.316406 " fill-opacity="1" fill-rule="nonzero"/><path fill="#ab9746" d="M 19.0625 58.222656 C 19.265625 58.40625 19.484375 58.550781 19.6875 58.664062 C 20.089844 58.890625 20.417969 58.984375 20.417969 58.984375 C 20.417969 58.984375 20.316406 58.359375 20.191406 57.601562 C 20.15625 57.410156 20.121094 57.210938 20.078125 57.015625 C 20.039062 56.816406 20 56.613281 19.957031 56.421875 C 19.875 56.035156 19.761719 55.675781 19.648438 55.414062 C 19.183594 54.351562 18.550781 53.902344 18.21875 54.5 C 17.878906 55.089844 17.996094 56.496094 18.546875 57.550781 C 18.683594 57.816406 18.863281 58.039062 19.0625 58.222656 " fill-opacity="1" fill-rule="nonzero"/><g clip-path="url(#4595666318)"><path fill="#ab9746" d="M 20.726562 64.542969 C 20.726562 64.542969 20.675781 64.386719 20.597656 64.132812 C 20.519531 63.878906 20.390625 63.527344 20.261719 63.144531 C 20.023438 62.375 19.664062 61.46875 19.359375 60.949219 C 18.707031 59.917969 17.976562 59.550781 17.722656 60.226562 C 17.601562 60.5625 17.613281 61.089844 17.753906 61.664062 C 17.914062 62.238281 18.191406 62.851562 18.542969 63.359375 C 19.292969 64.378906 20.726562 64.542969 20.726562 64.542969 " fill-opacity="1" fill-rule="nonzero"/></g><path fill="#ab9746" d="M 21.730469 70.273438 C 21.890625 70.28125 21.984375 70.277344 21.984375 70.277344 C 21.984375 70.277344 21.898438 70.121094 21.777344 69.871094 C 21.648438 69.621094 21.472656 69.273438 21.265625 68.902344 C 21.046875 68.527344 20.847656 68.113281 20.617188 67.734375 C 20.394531 67.355469 20.148438 67.015625 19.945312 66.773438 C 19.101562 65.804688 18.285156 65.542969 18.128906 66.289062 C 17.960938 67.039062 18.585938 68.492188 19.523438 69.421875 C 19.996094 69.886719 20.609375 70.105469 21.105469 70.203125 C 21.351562 70.25 21.570312 70.269531 21.730469 70.273438 " fill-opacity="1" fill-rule="nonzero"/><path fill="#ab9746" d="M 23.402344 76.078125 C 23.9375 76.082031 24.324219 75.992188 24.324219 75.992188 C 24.324219 75.992188 24.214844 75.847656 24.035156 75.609375 C 23.855469 75.375 23.589844 75.058594 23.324219 74.699219 C 23.050781 74.34375 22.742188 73.960938 22.433594 73.613281 C 22.140625 73.257812 21.84375 72.941406 21.574219 72.730469 C 21.03125 72.308594 20.558594 72.058594 20.203125 72.019531 C 19.847656 71.976562 19.613281 72.148438 19.597656 72.554688 C 19.570312 72.960938 19.808594 73.507812 20.164062 74.0625 C 20.25 74.203125 20.347656 74.339844 20.453125 74.476562 C 20.566406 74.609375 20.6875 74.742188 20.808594 74.871094 C 21.058594 75.125 21.328125 75.359375 21.609375 75.5625 C 21.75 75.664062 21.898438 75.746094 22.050781 75.8125 C 22.203125 75.878906 22.363281 75.929688 22.519531 75.96875 C 22.828125 76.046875 23.132812 76.074219 23.402344 76.078125 " fill-opacity="1" fill-rule="nonzero"/><path fill="#ab9746" d="M 27.824219 81.472656 C 27.824219 81.472656 27.679688 81.34375 27.449219 81.136719 C 27.207031 80.9375 26.894531 80.640625 26.542969 80.328125 C 25.816406 79.710938 24.996094 78.949219 24.347656 78.621094 C 23.105469 77.929688 22.152344 77.957031 22.273438 78.800781 C 22.304688 79.011719 22.402344 79.25 22.546875 79.503906 C 22.6875 79.757812 22.902344 80.011719 23.144531 80.265625 C 23.386719 80.519531 23.664062 80.765625 23.960938 80.988281 C 24.269531 81.203125 24.597656 81.394531 24.929688 81.546875 C 25.265625 81.703125 25.609375 81.777344 25.941406 81.800781 C 26.28125 81.820312 26.601562 81.789062 26.882812 81.742188 C 27.4375 81.644531 27.824219 81.472656 27.824219 81.472656 " fill-opacity="1" fill-rule="nonzero"/><path fill="#ab9746" d="M 32.519531 86.449219 C 32.519531 86.449219 32.347656 86.347656 32.0625 86.179688 C 31.921875 86.09375 31.746094 86.003906 31.566406 85.886719 C 31.382812 85.773438 31.179688 85.648438 30.964844 85.523438 C 30.75 85.394531 30.523438 85.265625 30.292969 85.140625 C 30.058594 85.011719 29.835938 84.875 29.609375 84.753906 C 29.160156 84.507812 28.714844 84.304688 28.359375 84.191406 C 26.933594 83.71875 25.949219 83.933594 26.246094 84.785156 C 26.394531 85.203125 26.820312 85.714844 27.433594 86.132812 C 27.734375 86.347656 28.074219 86.546875 28.425781 86.71875 C 28.785156 86.882812 29.167969 87.015625 29.542969 87.109375 C 29.917969 87.199219 30.289062 87.210938 30.640625 87.167969 C 30.996094 87.121094 31.320312 87.023438 31.601562 86.917969 C 32.15625 86.703125 32.519531 86.453125 32.519531 86.449219 " fill-opacity="1" fill-rule="nonzero"/><path fill="#ab9746" d="M 38.398438 90.613281 C 38.398438 90.613281 38.195312 90.542969 37.871094 90.425781 C 37.546875 90.308594 37.085938 90.171875 36.597656 89.984375 C 36.351562 89.898438 36.089844 89.808594 35.824219 89.726562 C 35.558594 89.640625 35.289062 89.5625 35.035156 89.476562 C 34.519531 89.3125 34.027344 89.1875 33.625 89.148438 C 32.058594 88.953125 31.082031 89.371094 31.5625 90.195312 C 31.683594 90.398438 31.882812 90.609375 32.136719 90.8125 C 32.394531 91.011719 32.722656 91.183594 33.078125 91.347656 C 33.433594 91.503906 33.816406 91.65625 34.226562 91.746094 C 34.636719 91.839844 35.054688 91.902344 35.460938 91.921875 C 35.667969 91.929688 35.863281 91.921875 36.054688 91.890625 C 36.25 91.855469 36.4375 91.804688 36.613281 91.746094 C 36.96875 91.621094 37.285156 91.457031 37.550781 91.289062 C 38.078125 90.953125 38.398438 90.613281 38.398438 90.613281 " fill-opacity="1" fill-rule="nonzero"/><path fill="#ab9746" d="M 44.78125 93.53125 C 44.421875 93.484375 43.925781 93.417969 43.371094 93.367188 C 42.820312 93.300781 42.222656 93.21875 41.648438 93.183594 C 41.078125 93.144531 40.546875 93.097656 40.125 93.148438 C 39.28125 93.246094 38.648438 93.414062 38.296875 93.6875 C 37.941406 93.953125 37.882812 94.304688 38.21875 94.679688 C 38.300781 94.773438 38.40625 94.867188 38.527344 94.953125 C 38.652344 95.039062 38.796875 95.113281 38.953125 95.1875 C 39.265625 95.328125 39.636719 95.453125 40.039062 95.546875 C 40.136719 95.570312 40.238281 95.589844 40.34375 95.609375 C 40.449219 95.625 40.554688 95.640625 40.664062 95.652344 C 40.878906 95.671875 41.101562 95.6875 41.320312 95.695312 C 41.765625 95.703125 42.203125 95.695312 42.632812 95.609375 C 43.492188 95.453125 44.175781 94.953125 44.644531 94.496094 C 45.113281 94.023438 45.367188 93.601562 45.367188 93.601562 C 45.367188 93.601562 45.3125 93.59375 45.210938 93.582031 C 45.109375 93.570312 44.960938 93.5625 44.78125 93.53125 " fill-opacity="1" fill-rule="nonzero"/><g clip-path="url(#3e38cc5baa)"><path fill="#ab9746" d="M 51.933594 95.1875 C 51.679688 95.21875 51.40625 95.238281 51.113281 95.269531 C 50.53125 95.328125 49.894531 95.417969 49.300781 95.488281 C 48.707031 95.5625 48.140625 95.691406 47.722656 95.8125 C 46.042969 96.347656 45.234375 97.21875 46.109375 97.824219 C 46.328125 97.972656 46.628906 98.089844 46.984375 98.171875 C 47.164062 98.214844 47.355469 98.246094 47.554688 98.273438 C 47.757812 98.285156 47.972656 98.292969 48.191406 98.289062 C 48.628906 98.28125 49.089844 98.238281 49.546875 98.160156 C 50.007812 98.058594 50.460938 97.917969 50.882812 97.746094 C 51.726562 97.414062 52.316406 96.707031 52.6875 96.125 C 53.058594 95.535156 53.222656 95.042969 53.222656 95.042969 C 53.222656 95.042969 52.984375 95.066406 52.601562 95.105469 C 52.410156 95.128906 52.183594 95.15625 51.933594 95.1875 " fill-opacity="1" fill-rule="nonzero"/></g><path fill="#ab9746" d="M 50.292969 48.875 C 50.8125 47.171875 49.871094 40.90625 49.230469 35.394531 C 49.222656 35.316406 49.109375 35.320312 49.105469 35.398438 C 48.835938 40.820312 49.011719 42.652344 48.933594 45.0625 C 48.921875 45.476562 48.847656 45.710938 48.609375 45.710938 C 48.382812 45.714844 48.320312 45.367188 48.304688 45.007812 C 48.117188 39.84375 47.898438 37.066406 47.808594 35.609375 C 47.808594 35.554688 47.722656 35.554688 47.722656 35.609375 C 47.636719 37.042969 47.480469 39.765625 47.292969 44.878906 C 47.28125 45.253906 47.164062 45.777344 46.957031 45.769531 C 46.71875 45.757812 46.648438 45.238281 46.640625 44.863281 C 46.53125 40.664062 46.304688 37.238281 46.199219 35.597656 C 46.195312 35.539062 46.113281 35.539062 46.109375 35.597656 C 46.007812 37.339844 45.738281 41.136719 45.59375 44.992188 C 45.582031 45.351562 45.535156 45.726562 45.335938 45.726562 C 45.070312 45.726562 44.996094 45.476562 44.984375 45.0625 C 44.90625 42.667969 44.988281 38.832031 44.65625 35.3125 C 44.648438 35.242188 44.546875 35.242188 44.539062 35.3125 C 43.710938 42.714844 43.125 47.007812 43.625 48.875 C 43.980469 50.207031 45.613281 51.679688 45.941406 52.320312 C 46.441406 53.300781 46.035156 62.738281 45.75 67.847656 C 45.589844 70.683594 43.6875 81.992188 45.832031 84.023438 C 46.128906 84.34375 46.527344 84.542969 46.96875 84.542969 C 47.519531 84.542969 48.003906 84.238281 48.296875 83.773438 C 50.097656 81.199219 48.320312 70.585938 48.167969 67.847656 C 47.882812 62.738281 47.527344 53.300781 47.976562 52.320312 C 48.382812 51.4375 49.902344 50.15625 50.292969 48.875 " fill-opacity="1" fill-rule="nonzero"/><path fill="#ab9746" d="M 64.328125 35.179688 C 64.285156 35.148438 64.238281 35.117188 64.195312 35.089844 C 63.5 34.605469 62.726562 34.339844 61.910156 34.339844 C 61.097656 34.339844 60.324219 34.605469 59.625 35.089844 C 59.582031 35.117188 59.539062 35.148438 59.492188 35.179688 C 57.617188 36.5625 56.320312 39.507812 56.320312 42.917969 C 56.320312 45.890625 57.308594 48.507812 58.804688 50.046875 C 59.59375 50.992188 60.644531 51.40625 60.945312 51.996094 C 61.449219 52.972656 61 62.742188 60.71875 67.851562 C 60.558594 70.6875 58.65625 81.992188 60.804688 84.027344 C 61.089844 84.339844 61.480469 84.535156 61.910156 84.542969 C 62.339844 84.535156 62.730469 84.339844 63.019531 84.027344 C 65.167969 81.992188 63.261719 70.6875 63.105469 67.851562 C 62.820312 62.742188 62.375 52.972656 62.875 51.996094 C 63.175781 51.40625 64.230469 50.992188 65.015625 50.046875 C 66.515625 48.507812 67.5 45.890625 67.5 42.917969 C 67.5 39.507812 66.203125 36.5625 64.328125 35.179688 " fill-opacity="1" fill-rule="nonzero"/></svg>