<?xml version="1.0"?>
<svg width="77" height="40" xmlns="http://www.w3.org/2000/svg" xmlns:svg="http://www.w3.org/2000/svg">

 <g class="layer">
  <title>Layer 1</title>
  <path d="m34.6,10.06c0,-2.53 4.38,-4.2 4.38,-6.96c0,-1.62 -1.41,-3.02 -1.63,-3.1c0.02,0.11 0.03,0.23 0.03,0.34c0,3.16 -6.13,5.28 -6.13,9.21c0,1.71 1.34,2.72 2.77,3.72c2.71,1.6 3.26,2.44 3.26,2.97c0,0.34 -0.21,0.58 -0.21,0.76c0.55,-0.57 0.73,-1.09 0.73,-1.59c0,-1.02 -0.9,-1.93 -1.84,-2.97c-0.66,-0.76 -1.36,-1.46 -1.36,-2.38zm8.56,-1.34c-0.51,-2.29 -3.25,-4.26 -3.95,-4.49l0.17,0.25c0.1,0.18 0.14,0.38 0.14,0.59c0,1.53 -2.26,3.81 -2.36,4c-0.09,0.17 -0.13,0.36 -0.13,0.54c0,0.69 0.63,1.44 0.75,1.44c0.1,0 2.35,-1.9 2.42,-3c0.26,0.4 0.37,0.77 0.37,1.14c0,1.42 -1.74,3.33 -1.74,3.33c0,0.39 1.33,1.82 1.48,1.82c0.04,0 0.09,-0.05 0.14,-0.08c1.58,-1.35 2.8,-2.92 2.8,-4.69c0,-0.28 -0.03,-0.56 -0.09,-0.85z" fill="#DB241B" id="svg_1"/>
  <path d="m13.92,35.21c0.07,-0.12 0.18,-0.23 0.32,-0.31c0.14,-0.09 0.31,-0.13 0.5,-0.13c0.19,0 0.37,0.05 0.53,0.14c0.16,0.1 0.28,0.23 0.37,0.4c0.09,0.17 0.14,0.36 0.14,0.59c0,0.22 -0.05,0.41 -0.14,0.59c-0.09,0.17 -0.21,0.31 -0.37,0.4c-0.16,0.1 -0.34,0.15 -0.53,0.15c-0.19,0 -0.35,-0.05 -0.5,-0.13c-0.14,-0.08 -0.25,-0.19 -0.32,-0.31l0,1.44l-0.37,0l0,-3.23l0.37,0l0,0.4zm1.49,0.69c0,-0.17 -0.04,-0.31 -0.1,-0.44c-0.07,-0.12 -0.16,-0.21 -0.28,-0.28c-0.11,-0.06 -0.23,-0.09 -0.37,-0.09c-0.13,0 -0.26,0.03 -0.37,0.1c-0.11,0.06 -0.2,0.16 -0.27,0.28c-0.07,0.12 -0.1,0.27 -0.1,0.43c0,0.17 0.03,0.31 0.1,0.44c0.07,0.12 0.16,0.21 0.27,0.28c0.11,0.06 0.24,0.1 0.37,0.1c0.14,0 0.26,-0.04 0.37,-0.1c0.12,-0.07 0.21,-0.16 0.28,-0.28c0.06,-0.13 0.1,-0.28 0.1,-0.44zm1.21,-0.74c0.07,-0.12 0.16,-0.22 0.27,-0.29c0.12,-0.07 0.27,-0.1 0.44,-0.1l0,0.37l-0.1,0c-0.4,0 -0.61,0.23 -0.61,0.67l0,1.19l-0.36,0l0,-2.19l0.36,0l0,0.35zm3.07,-0.35l0,2.19l-0.36,0l0,-0.32c-0.07,0.11 -0.17,0.2 -0.29,0.26c-0.13,0.06 -0.26,0.09 -0.41,0.09c-0.17,0 -0.32,-0.03 -0.46,-0.1c-0.14,-0.07 -0.24,-0.18 -0.32,-0.32c-0.08,-0.14 -0.12,-0.32 -0.12,-0.52l0,-1.28l0.36,0l0,1.23c0,0.22 0.05,0.39 0.16,0.5c0.11,0.12 0.26,0.18 0.45,0.18c0.2,0 0.35,-0.06 0.46,-0.18c0.11,-0.12 0.17,-0.3 0.17,-0.53l0,-1.2l0.36,0zm2.62,1.01c0,0.07 -0.01,0.14 -0.01,0.22l-1.76,0c0.02,0.22 0.09,0.39 0.22,0.51c0.14,0.12 0.3,0.18 0.5,0.18c0.15,0 0.28,-0.04 0.39,-0.11c0.1,-0.07 0.18,-0.17 0.22,-0.3l0.39,0c-0.05,0.21 -0.17,0.39 -0.35,0.52c-0.17,0.13 -0.39,0.2 -0.65,0.2c-0.21,0 -0.4,-0.05 -0.56,-0.14c-0.17,-0.1 -0.29,-0.23 -0.39,-0.4c-0.09,-0.17 -0.14,-0.37 -0.14,-0.6c0,-0.23 0.05,-0.43 0.14,-0.6c0.09,-0.17 0.22,-0.3 0.38,-0.39c0.16,-0.09 0.35,-0.14 0.57,-0.14c0.2,0 0.39,0.05 0.55,0.14c0.16,0.09 0.28,0.21 0.37,0.37c0.08,0.16 0.13,0.34 0.13,0.54zm-0.38,-0.08c0,-0.13 -0.03,-0.25 -0.09,-0.35c-0.06,-0.1 -0.15,-0.18 -0.25,-0.23c-0.11,-0.05 -0.22,-0.08 -0.35,-0.08c-0.18,0 -0.34,0.06 -0.47,0.18c-0.13,0.11 -0.2,0.28 -0.22,0.48l1.38,0zm1.22,-0.52c0.08,-0.13 0.19,-0.24 0.33,-0.32c0.14,-0.09 0.31,-0.13 0.49,-0.13c0.2,0 0.38,0.05 0.53,0.14c0.16,0.1 0.29,0.23 0.38,0.4c0.09,0.17 0.13,0.36 0.13,0.59c0,0.22 -0.04,0.41 -0.13,0.59c-0.09,0.17 -0.22,0.31 -0.38,0.4c-0.16,0.1 -0.33,0.15 -0.53,0.15c-0.19,0 -0.35,-0.05 -0.5,-0.13c-0.14,-0.08 -0.25,-0.19 -0.32,-0.31l0,0.4l-0.36,0l0,-2.96l0.36,0l0,1.18zm1.49,0.68c0,-0.17 -0.03,-0.31 -0.1,-0.44c-0.07,-0.12 -0.16,-0.21 -0.27,-0.28c-0.11,-0.06 -0.24,-0.09 -0.37,-0.09c-0.14,0 -0.26,0.03 -0.38,0.1c-0.11,0.06 -0.2,0.16 -0.27,0.28c-0.06,0.12 -0.1,0.27 -0.1,0.43c0,0.17 0.04,0.31 0.1,0.44c0.07,0.12 0.16,0.21 0.27,0.28c0.12,0.06 0.24,0.1 0.38,0.1c0.13,0 0.26,-0.04 0.37,-0.1c0.11,-0.07 0.2,-0.16 0.27,-0.28c0.07,-0.13 0.1,-0.28 0.1,-0.44zm0.72,0c0,-0.23 0.04,-0.42 0.13,-0.59c0.09,-0.17 0.22,-0.3 0.37,-0.4c0.16,-0.09 0.34,-0.14 0.54,-0.14c0.19,0 0.35,0.04 0.5,0.13c0.14,0.08 0.24,0.18 0.31,0.31l0,-0.4l0.37,0l0,2.19l-0.37,0l0,-0.41c-0.07,0.13 -0.18,0.24 -0.32,0.32c-0.14,0.08 -0.31,0.13 -0.5,0.13c-0.19,0 -0.37,-0.05 -0.53,-0.15c-0.15,-0.09 -0.28,-0.23 -0.37,-0.4c-0.09,-0.18 -0.13,-0.37 -0.13,-0.59zm1.85,0c0,-0.17 -0.03,-0.31 -0.1,-0.43c-0.07,-0.12 -0.16,-0.22 -0.27,-0.28c-0.11,-0.07 -0.24,-0.1 -0.37,-0.1c-0.14,0 -0.26,0.03 -0.37,0.09c-0.12,0.07 -0.21,0.16 -0.27,0.28c-0.07,0.13 -0.1,0.27 -0.1,0.44c0,0.16 0.03,0.31 0.1,0.44c0.06,0.12 0.15,0.21 0.27,0.28c0.11,0.06 0.23,0.1 0.37,0.1c0.13,0 0.26,-0.04 0.37,-0.1c0.11,-0.07 0.2,-0.16 0.27,-0.28c0.07,-0.13 0.1,-0.27 0.1,-0.44zm3.12,-1.13c0.27,0 0.48,0.08 0.65,0.24c0.16,0.16 0.25,0.39 0.25,0.7l0,1.29l-0.36,0l0,-1.24c0,-0.22 -0.06,-0.39 -0.17,-0.5c-0.11,-0.12 -0.26,-0.18 -0.45,-0.18c-0.19,0 -0.34,0.06 -0.46,0.18c-0.11,0.12 -0.16,0.3 -0.16,0.53l0,1.21l-0.37,0l0,-2.19l0.37,0l0,0.31c0.07,-0.11 0.16,-0.2 0.29,-0.26c0.12,-0.06 0.26,-0.09 0.41,-0.09zm3.43,0.04l0,2.19l-0.36,0l0,-0.32c-0.07,0.11 -0.17,0.2 -0.29,0.26c-0.12,0.06 -0.26,0.09 -0.41,0.09c-0.17,0 -0.32,-0.03 -0.46,-0.1c-0.14,-0.07 -0.24,-0.18 -0.32,-0.32c-0.08,-0.14 -0.12,-0.32 -0.12,-0.52l0,-1.28l0.36,0l0,1.23c0,0.22 0.05,0.39 0.16,0.5c0.11,0.12 0.26,0.18 0.45,0.18c0.2,0 0.35,-0.06 0.46,-0.18c0.11,-0.12 0.17,-0.3 0.17,-0.53l0,-1.2l0.36,0zm2.62,1.01c0,0.07 -0.01,0.14 -0.01,0.22l-1.76,0c0.02,0.22 0.09,0.39 0.22,0.51c0.14,0.12 0.3,0.18 0.5,0.18c0.15,0 0.28,-0.04 0.39,-0.11c0.11,-0.07 0.18,-0.17 0.22,-0.3l0.39,0c-0.05,0.21 -0.17,0.39 -0.35,0.52c-0.17,0.13 -0.39,0.2 -0.65,0.2c-0.21,0 -0.4,-0.05 -0.56,-0.14c-0.17,-0.1 -0.29,-0.23 -0.39,-0.4c-0.09,-0.17 -0.14,-0.37 -0.14,-0.6c0,-0.23 0.05,-0.43 0.14,-0.6c0.09,-0.17 0.22,-0.3 0.38,-0.39c0.16,-0.09 0.35,-0.14 0.57,-0.14c0.2,0 0.39,0.05 0.55,0.14c0.16,0.09 0.28,0.21 0.37,0.37c0.08,0.16 0.13,0.34 0.13,0.54zm-0.38,-0.08c0,-0.13 -0.03,-0.25 -0.09,-0.35c-0.06,-0.1 -0.14,-0.18 -0.25,-0.23c-0.11,-0.05 -0.22,-0.08 -0.35,-0.08c-0.18,0 -0.34,0.06 -0.47,0.18c-0.13,0.11 -0.2,0.28 -0.22,0.48l1.38,0zm1.63,1.3c-0.16,0 -0.31,-0.03 -0.45,-0.09c-0.13,-0.06 -0.24,-0.14 -0.31,-0.24c-0.08,-0.1 -0.12,-0.22 -0.13,-0.35l0.37,0c0.02,0.11 0.07,0.19 0.16,0.26c0.09,0.07 0.21,0.11 0.36,0.11c0.14,0 0.25,-0.03 0.33,-0.09c0.08,-0.07 0.12,-0.14 0.12,-0.24c0,-0.09 -0.04,-0.16 -0.13,-0.21c-0.08,-0.05 -0.22,-0.09 -0.4,-0.14c-0.16,-0.04 -0.29,-0.08 -0.4,-0.13c-0.1,-0.04 -0.18,-0.11 -0.26,-0.19c-0.07,-0.09 -0.11,-0.2 -0.11,-0.35c0,-0.11 0.04,-0.21 0.1,-0.3c0.07,-0.1 0.16,-0.17 0.29,-0.22c0.12,-0.06 0.26,-0.09 0.42,-0.09c0.24,0 0.44,0.06 0.58,0.19c0.15,0.12 0.23,0.29 0.24,0.5l-0.36,0c-0.01,-0.11 -0.05,-0.21 -0.14,-0.28c-0.08,-0.07 -0.19,-0.1 -0.34,-0.1c-0.13,0 -0.23,0.03 -0.31,0.08c-0.07,0.06 -0.11,0.13 -0.11,0.22c0,0.08 0.02,0.14 0.06,0.18c0.05,0.05 0.11,0.09 0.18,0.12c0.07,0.02 0.17,0.05 0.3,0.09c0.15,0.04 0.28,0.08 0.38,0.13c0.1,0.04 0.18,0.1 0.25,0.18c0.07,0.08 0.11,0.19 0.11,0.32c0,0.12 -0.03,0.23 -0.1,0.33c-0.06,0.09 -0.16,0.17 -0.28,0.23c-0.12,0.05 -0.26,0.08 -0.42,0.08zm1.76,-1.93l0,1.29c0,0.11 0.03,0.18 0.07,0.23c0.05,0.04 0.12,0.06 0.24,0.06l0.26,0l0,0.31l-0.32,0c-0.21,0 -0.36,-0.05 -0.46,-0.14c-0.1,-0.09 -0.15,-0.25 -0.15,-0.46l0,-1.29l-0.29,0l0,-0.3l0.29,0l0,-0.55l0.36,0l0,0.55l0.57,0l0,0.3l-0.57,0zm1.38,0.05c0.06,-0.12 0.15,-0.22 0.27,-0.29c0.12,-0.07 0.27,-0.1 0.44,-0.1l0,0.37l-0.1,0c-0.41,0 -0.61,0.23 -0.61,0.67l0,1.19l-0.36,0l0,-2.19l0.36,0l0,0.35zm2.08,1.88c-0.2,0 -0.39,-0.05 -0.56,-0.14c-0.16,-0.1 -0.29,-0.23 -0.39,-0.4c-0.09,-0.17 -0.14,-0.37 -0.14,-0.6c0,-0.22 0.05,-0.42 0.15,-0.59c0.09,-0.18 0.23,-0.31 0.4,-0.4c0.16,-0.09 0.35,-0.14 0.56,-0.14c0.21,0 0.4,0.05 0.56,0.14c0.17,0.09 0.3,0.22 0.4,0.39c0.1,0.17 0.15,0.37 0.15,0.6c0,0.23 -0.05,0.43 -0.15,0.6c-0.1,0.17 -0.24,0.3 -0.41,0.4c-0.17,0.09 -0.36,0.14 -0.57,0.14zm0,-0.32c0.13,0 0.26,-0.03 0.37,-0.1c0.12,-0.06 0.21,-0.15 0.28,-0.27c0.07,-0.12 0.11,-0.27 0.11,-0.45c0,-0.18 -0.04,-0.33 -0.11,-0.45c-0.07,-0.12 -0.16,-0.21 -0.27,-0.27c-0.11,-0.06 -0.23,-0.09 -0.36,-0.09c-0.14,0 -0.26,0.03 -0.37,0.09c-0.11,0.06 -0.2,0.15 -0.27,0.27c-0.06,0.12 -0.1,0.27 -0.1,0.45c0,0.18 0.04,0.33 0.1,0.45c0.07,0.12 0.15,0.22 0.26,0.28c0.11,0.06 0.23,0.09 0.36,0.09zm2.38,0.32c-0.17,0 -0.32,-0.03 -0.45,-0.09c-0.13,-0.06 -0.24,-0.14 -0.32,-0.24c-0.07,-0.1 -0.12,-0.22 -0.12,-0.35l0.37,0c0.01,0.11 0.06,0.19 0.15,0.26c0.1,0.07 0.22,0.11 0.37,0.11c0.14,0 0.25,-0.03 0.33,-0.09c0.08,-0.07 0.12,-0.14 0.12,-0.24c0,-0.09 -0.05,-0.16 -0.13,-0.21c-0.09,-0.05 -0.22,-0.09 -0.4,-0.14c-0.16,-0.04 -0.29,-0.08 -0.4,-0.13c-0.1,-0.04 -0.19,-0.11 -0.26,-0.19c-0.07,-0.09 -0.11,-0.2 -0.11,-0.35c0,-0.11 0.03,-0.21 0.1,-0.3c0.07,-0.1 0.16,-0.17 0.28,-0.22c0.13,-0.06 0.27,-0.09 0.42,-0.09c0.25,0 0.44,0.06 0.59,0.19c0.15,0.12 0.23,0.29 0.24,0.5l-0.36,0c-0.01,-0.11 -0.06,-0.21 -0.14,-0.28c-0.08,-0.07 -0.2,-0.1 -0.34,-0.1c-0.13,0 -0.23,0.03 -0.31,0.08c-0.08,0.06 -0.12,0.13 -0.12,0.22c0,0.08 0.03,0.14 0.07,0.18c0.05,0.05 0.11,0.09 0.18,0.12c0.07,0.02 0.17,0.05 0.29,0.09c0.16,0.04 0.29,0.08 0.39,0.13c0.1,0.04 0.18,0.1 0.25,0.18c0.07,0.08 0.11,0.19 0.11,0.32c0,0.12 -0.03,0.23 -0.1,0.33c-0.06,0.09 -0.16,0.17 -0.28,0.23c-0.12,0.05 -0.26,0.08 -0.42,0.08zm2.75,-1.83c0.07,-0.12 0.18,-0.23 0.32,-0.31c0.14,-0.09 0.31,-0.13 0.5,-0.13c0.19,0 0.37,0.05 0.52,0.14c0.16,0.1 0.29,0.23 0.38,0.4c0.09,0.17 0.14,0.36 0.14,0.59c0,0.22 -0.05,0.41 -0.14,0.59c-0.09,0.17 -0.22,0.31 -0.38,0.4c-0.15,0.1 -0.33,0.15 -0.52,0.15c-0.19,0 -0.36,-0.05 -0.5,-0.13c-0.14,-0.08 -0.25,-0.19 -0.32,-0.31l0,1.44l-0.37,0l0,-3.23l0.37,0l0,0.4zm1.48,0.69c0,-0.17 -0.03,-0.31 -0.1,-0.44c-0.06,-0.12 -0.15,-0.21 -0.27,-0.28c-0.11,-0.06 -0.23,-0.09 -0.37,-0.09c-0.13,0 -0.26,0.03 -0.37,0.1c-0.11,0.06 -0.2,0.16 -0.27,0.28c-0.07,0.12 -0.1,0.27 -0.1,0.43c0,0.17 0.03,0.31 0.1,0.44c0.07,0.12 0.16,0.21 0.27,0.28c0.11,0.06 0.24,0.1 0.37,0.1c0.14,0 0.26,-0.04 0.37,-0.1c0.12,-0.07 0.21,-0.16 0.27,-0.28c0.07,-0.13 0.1,-0.28 0.1,-0.44zm1.22,-1.86l0,2.96l-0.36,0l0,-2.96l0.36,0zm0.48,1.86c0,-0.23 0.05,-0.42 0.14,-0.59c0.09,-0.17 0.21,-0.3 0.37,-0.4c0.16,-0.09 0.34,-0.14 0.53,-0.14c0.2,0 0.36,0.04 0.5,0.13c0.15,0.08 0.25,0.18 0.32,0.31l0,-0.4l0.37,0l0,2.19l-0.37,0l0,-0.41c-0.07,0.13 -0.18,0.24 -0.32,0.32c-0.15,0.08 -0.31,0.13 -0.5,0.13c-0.19,0 -0.37,-0.05 -0.53,-0.15c-0.16,-0.09 -0.28,-0.23 -0.37,-0.4c-0.09,-0.18 -0.14,-0.37 -0.14,-0.59zm1.86,0c0,-0.17 -0.03,-0.31 -0.1,-0.43c-0.07,-0.12 -0.16,-0.22 -0.27,-0.28c-0.11,-0.07 -0.24,-0.1 -0.37,-0.1c-0.14,0 -0.26,0.03 -0.38,0.09c-0.11,0.07 -0.2,0.16 -0.26,0.28c-0.07,0.13 -0.1,0.27 -0.1,0.44c0,0.16 0.03,0.31 0.1,0.44c0.06,0.12 0.15,0.21 0.26,0.28c0.12,0.06 0.24,0.1 0.38,0.1c0.13,0 0.26,-0.04 0.37,-0.1c0.11,-0.07 0.2,-0.16 0.27,-0.28c0.07,-0.13 0.1,-0.27 0.1,-0.44zm1.43,-0.79l0,1.29c0,0.11 0.02,0.18 0.07,0.23c0.04,0.04 0.12,0.06 0.23,0.06l0.27,0l0,0.31l-0.33,0c-0.2,0 -0.35,-0.05 -0.45,-0.14c-0.11,-0.09 -0.16,-0.25 -0.16,-0.46l0,-1.29l-0.28,0l0,-0.3l0.28,0l0,-0.55l0.37,0l0,0.55l0.57,0l0,0.3l-0.57,0zm1.2,-0.66c-0.07,0 -0.13,-0.02 -0.18,-0.07c-0.05,-0.05 -0.07,-0.11 -0.07,-0.18c0,-0.07 0.02,-0.12 0.07,-0.17c0.05,-0.05 0.11,-0.07 0.18,-0.07c0.07,0 0.12,0.02 0.17,0.07c0.04,0.05 0.07,0.1 0.07,0.17c0,0.07 -0.03,0.13 -0.07,0.18c-0.05,0.05 -0.1,0.07 -0.17,0.07zm0.17,0.36l0,2.19l-0.36,0l0,-2.19l0.36,0zm0.99,-0.77l0,2.96l-0.37,0l0,-2.96l0.37,0zm0.98,0l0,2.96l-0.36,0l0,-2.96l0.36,0zm1.58,3c-0.21,0 -0.39,-0.05 -0.56,-0.14c-0.17,-0.1 -0.3,-0.23 -0.39,-0.4c-0.1,-0.17 -0.14,-0.37 -0.14,-0.6c0,-0.22 0.05,-0.42 0.14,-0.59c0.1,-0.18 0.23,-0.31 0.4,-0.4c0.17,-0.09 0.36,-0.14 0.57,-0.14c0.2,0 0.39,0.05 0.56,0.14c0.17,0.09 0.3,0.22 0.4,0.39c0.09,0.17 0.14,0.37 0.14,0.6c0,0.23 -0.05,0.43 -0.15,0.6c-0.1,0.17 -0.23,0.3 -0.4,0.4c-0.17,0.09 -0.36,0.14 -0.57,0.14zm0,-0.32c0.13,0 0.25,-0.03 0.37,-0.1c0.11,-0.06 0.2,-0.15 0.27,-0.27c0.08,-0.12 0.11,-0.27 0.11,-0.45c0,-0.18 -0.03,-0.33 -0.1,-0.45c-0.07,-0.12 -0.16,-0.21 -0.27,-0.27c-0.12,-0.06 -0.24,-0.09 -0.37,-0.09c-0.13,0 -0.25,0.03 -0.37,0.09c-0.11,0.06 -0.19,0.15 -0.26,0.27c-0.07,0.12 -0.1,0.27 -0.1,0.45c0,0.18 0.03,0.33 0.1,0.45c0.06,0.12 0.15,0.22 0.26,0.28c0.11,0.06 0.23,0.09 0.36,0.09zm2.38,0.32c-0.17,0 -0.32,-0.03 -0.45,-0.09c-0.14,-0.06 -0.24,-0.14 -0.32,-0.24c-0.08,-0.1 -0.12,-0.22 -0.13,-0.35l0.38,0c0.01,0.11 0.06,0.19 0.15,0.26c0.09,0.07 0.21,0.11 0.36,0.11c0.14,0 0.25,-0.03 0.33,-0.09c0.08,-0.07 0.12,-0.14 0.12,-0.24c0,-0.09 -0.04,-0.16 -0.13,-0.21c-0.08,-0.05 -0.21,-0.09 -0.39,-0.14c-0.16,-0.04 -0.3,-0.08 -0.4,-0.13c-0.1,-0.04 -0.19,-0.11 -0.27,-0.19c-0.07,-0.09 -0.1,-0.2 -0.1,-0.35c0,-0.11 0.03,-0.21 0.1,-0.3c0.06,-0.1 0.16,-0.17 0.28,-0.22c0.12,-0.06 0.26,-0.09 0.42,-0.09c0.24,0 0.44,0.06 0.59,0.19c0.15,0.12 0.23,0.29 0.24,0.5l-0.37,0c0,-0.11 -0.05,-0.21 -0.14,-0.28c-0.08,-0.07 -0.19,-0.1 -0.33,-0.1c-0.13,0 -0.24,0.03 -0.31,0.08c-0.08,0.06 -0.12,0.13 -0.12,0.22c0,0.08 0.02,0.14 0.07,0.18c0.05,0.05 0.1,0.09 0.17,0.12c0.08,0.02 0.17,0.05 0.3,0.09c0.16,0.04 0.29,0.08 0.38,0.13c0.1,0.04 0.19,0.1 0.26,0.18c0.07,0.08 0.11,0.19 0.11,0.32c0,0.12 -0.04,0.23 -0.1,0.33c-0.07,0.09 -0.16,0.17 -0.29,0.23c-0.12,0.05 -0.25,0.08 -0.41,0.08z" fill="#D3D2D2" id="svg_3" transform="matrix(1, 0, 0, 1, 0, 0)"/>
  <text fill="#ffffff" font-family="Helvetica" font-size="24" id="svg_4" stroke="null" stroke-dasharray="null" stroke-linecap="null" stroke-linejoin="null" stroke-opacity="null" stroke-width="0" text-anchor="middle" transform="matrix(0.703163, 0, 0, 0.67195, 3.59945, 9.32897)" x="49.81" xml:space="preserve" y="29.32">UP Food</text>
 </g>
</svg>